<?xml version="1.0" standalone="no"?>
<!DOCTYPE svg PUBLIC "-//W3C//DTD SVG 20010904//EN"
 "http://www.w3.org/TR/2001/REC-SVG-20010904/DTD/svg10.dtd">
<svg version="1.0" xmlns="http://www.w3.org/2000/svg"
 width="1188.000000pt" height="1188.000000pt" viewBox="0 0 1188.000000 1188.000000"
 preserveAspectRatio="xMidYMid meet">
<metadata>
Created by potrace 1.11, written by Peter Selinger 2001-2013
</metadata>
<g transform="translate(0.000000,1188.000000) scale(0.100000,-0.100000)"
fill="#000000" stroke="none">
<path d="M7313 11318 c-25 -12 -28 -40 -14 -115 7 -36 2 -61 -29 -158 -21 -64
-39 -119 -40 -123 -2 -4 -4 -11 -6 -17 -1 -5 -26 -84 -54 -175 -84 -270 -82
-264 -91 -249 -5 8 -9 24 -9 37 0 12 -4 22 -8 22 -7 0 -42 -60 -47 -80 -1 -3
-27 -58 -58 -123 -31 -65 -57 -122 -57 -127 0 -5 15 -44 34 -88 33 -78 33 -81
15 -99 -14 -13 -20 -37 -23 -86 -3 -55 -12 -85 -52 -167 -26 -55 -50 -100 -53
-100 -3 0 -15 18 -25 40 -10 22 -22 37 -26 35 -4 -3 -24 -50 -45 -105 l-38
-101 -41 6 c-22 3 -57 8 -76 11 -41 7 -39 7 -64 5 -13 -1 8 -20 62 -58 74 -52
82 -60 76 -83 -10 -36 -9 -44 16 -155 12 -55 24 -113 26 -130 3 -16 10 -47 15
-67 8 -31 6 -45 -11 -79 -19 -35 -51 -158 -53 -196 -1 -28 -15 -7 -71 112 -33
69 -61 123 -63 121 -2 -1 -12 -37 -23 -78 -15 -60 -19 -97 -15 -182 3 -59 7
-178 10 -264 4 -86 8 -182 10 -212 3 -52 -27 -160 -45 -160 -4 0 -20 30 -35
68 -55 129 -96 215 -100 210 -3 -3 -34 -76 -69 -162 -35 -87 -66 -154 -69
-149 -5 9 -14 49 -22 98 -6 31 -11 61 -21 105 -6 29 -23 122 -30 165 -3 17 -9
46 -14 65 -5 20 -7 51 -4 70 2 19 7 48 9 63 2 15 7 47 10 70 15 105 25 172 31
202 2 11 6 38 9 60 2 22 6 49 9 60 2 11 7 45 11 75 4 30 9 62 10 70 4 20 19
125 29 200 3 19 7 49 10 65 3 17 8 50 11 75 9 63 14 100 21 135 5 29 5 29 -9
10 -9 -12 -24 -40 -34 -63 -10 -23 -21 -42 -25 -42 -5 0 -8 -9 -8 -21 0 -42
-18 -7 -25 48 -4 32 -8 67 -10 78 -4 22 -12 75 -20 145 -3 25 -7 54 -10 65 -2
11 -4 35 -4 53 -1 17 -5 32 -9 32 -4 0 -25 -55 -46 -122 -21 -68 -46 -148 -56
-178 -14 -43 -44 -140 -65 -210 -1 -3 -5 -13 -10 -24 -5 -11 -4 -26 3 -37 9
-15 9 -17 -2 -13 -8 3 -16 -3 -19 -16 -8 -31 -9 -33 -19 -60 -10 -26 -99 -308
-102 -325 -9 -44 -51 -154 -57 -148 -5 7 -29 71 -34 93 -15 66 -41 111 -150
255 l-123 165 -7 -42 c-4 -24 -9 -52 -12 -63 -2 -11 -6 -31 -9 -45 -2 -14 -7
-36 -9 -50 -3 -14 -8 -38 -10 -55 -3 -16 -10 -50 -15 -75 -6 -25 -12 -61 -14
-80 -3 -19 -5 -35 -6 -35 -1 0 -4 -11 -6 -25 -2 -14 -13 -72 -24 -130 -11 -58
-22 -116 -24 -130 -3 -22 7 -56 39 -135 4 -11 9 -24 11 -30 3 -12 87 -239 117
-315 12 -30 22 -57 22 -60 3 -18 18 -50 23 -50 4 0 30 18 57 40 28 22 55 43
60 48 6 4 26 21 46 37 19 17 55 46 79 65 24 19 48 40 54 45 6 6 34 28 61 50
28 21 52 42 55 45 9 9 105 86 116 93 6 3 11 1 11 -6 0 -7 3 -37 7 -67 4 -30 9
-71 11 -90 2 -19 6 -53 9 -75 3 -22 8 -62 12 -90 3 -27 8 -63 10 -80 5 -32 15
-119 17 -147 2 -26 10 -12 42 70 29 74 42 89 43 50 0 -23 60 -386 77 -468 3
-14 7 -38 9 -55 2 -16 8 -52 12 -80 4 -27 7 -55 6 -62 -2 -6 2 -14 8 -18 7 -4
9 20 5 77 -3 46 -8 121 -11 168 -3 47 -7 117 -10 155 -2 39 -7 113 -10 165 -3
52 -7 106 -8 120 -2 19 59 155 81 179 5 7 62 -62 63 -76 0 -7 3 -13 8 -13 4 0
19 -19 34 -43 39 -62 74 -90 97 -78 10 6 21 7 25 4 3 -3 6 -1 6 5 0 7 5 12 12
12 6 0 44 15 84 34 112 54 108 56 105 -44 -2 -81 -4 -88 -44 -150 -23 -36 -45
-66 -49 -68 -5 -2 -8 -7 -8 -12 0 -4 -69 -111 -153 -236 -161 -241 -177 -266
-160 -249 6 6 111 132 233 280 206 250 272 327 257 299 -4 -6 -9 -31 -12 -55
-3 -24 -8 -59 -11 -76 -7 -37 5 -43 23 -14 10 15 150 200 206 271 53 67 122
166 123 178 2 7 4 15 6 17 2 2 59 -147 128 -331 69 -183 130 -334 135 -334 9
0 80 55 203 159 24 20 52 43 63 53 11 9 39 31 61 50 80 64 129 113 132 133 3
11 27 83 54 160 87 243 192 543 192 548 0 9 -154 -56 -162 -67 -4 -6 -8 -8 -8
-4 0 13 -131 -49 -163 -77 -18 -15 -68 -59 -111 -99 -56 -50 -77 -64 -72 -48
11 38 15 56 20 82 2 14 12 57 21 95 9 39 19 81 21 95 3 14 12 54 20 90 9 36
18 76 21 90 9 45 11 55 13 55 1 0 3 9 5 20 2 11 6 30 9 43 4 17 1 22 -16 22
-19 0 -19 1 5 20 14 11 28 36 33 57 4 21 8 40 9 43 8 30 19 82 30 140 2 14 11
50 19 80 8 30 17 75 22 100 9 51 11 59 14 63 6 7 7 37 2 37 -4 0 -20 -20 -37
-45 -48 -71 -219 -294 -226 -295 -4 0 -5 26 -3 58 10 148 10 202 2 202 -4 0
-8 -5 -8 -12 0 -10 -110 -297 -140 -363 -4 -11 -67 -171 -140 -355 -72 -184
-135 -344 -141 -355 -9 -18 -106 -133 -248 -294 -31 -35 -60 -69 -64 -77 -4
-8 -13 -14 -19 -14 -9 0 -8 23 7 125 2 11 6 45 10 75 7 59 14 108 18 118 8 24
-30 3 -139 -77 l-124 -91 6 57 c6 60 37 115 312 542 22 35 46 87 52 115 6 28
14 58 17 66 9 23 12 40 7 40 -3 0 -55 -34 -115 -76 -61 -41 -113 -74 -114 -72
-2 2 10 41 26 87 16 46 29 88 28 95 -6 48 5 75 47 121 53 58 159 177 191 213
12 14 20 34 18 44 -2 10 1 21 8 23 13 4 113 13 160 14 48 1 29 18 -62 52 -49
19 -88 37 -86 40 2 3 7 28 11 55 3 27 8 58 10 69 11 57 14 95 9 95 -4 0 -19
-8 -33 -18 -15 -10 -32 -22 -39 -25 -8 -5 -10 18 -7 90 5 105 15 144 49 208
15 29 19 49 14 67 -6 25 -1 32 67 83 51 38 74 62 75 78 1 12 3 38 4 57 2 19 6
67 9 105 3 39 8 96 10 128 5 54 -3 72 -21 45 -4 -7 -15 -19 -25 -26 -14 -12
-14 -4 3 75 11 48 23 97 26 108 4 11 7 27 8 35 4 32 47 224 55 246 5 12 7 24
4 26 -2 3 2 24 10 46 9 23 13 42 11 42 -2 0 3 23 11 52 7 29 11 54 9 56 -2 2
18 31 46 64 l49 59 -22 29 c-12 17 -24 30 -27 30 -11 0 -64 -137 -75 -191 -2
-13 -12 -49 -22 -79 -9 -30 -17 -59 -18 -65 -1 -5 -10 -37 -20 -70 -10 -33
-20 -67 -22 -75 -2 -8 -11 -42 -20 -75 -9 -33 -18 -67 -19 -75 -2 -8 -4 -16
-5 -17 -2 -2 -4 -7 -5 -13 -1 -5 -3 -11 -5 -12 -1 -2 -3 -11 -5 -20 -5 -25
-46 -169 -56 -198 -15 -42 -18 -69 -8 -75 5 -4 9 -2 9 2 0 5 14 17 30 26 23
14 30 15 31 5 7 -75 3 -177 -7 -193 -11 -20 -31 -43 -132 -154 l-49 -53 -18
83 c-10 46 -19 95 -21 109 -2 14 -8 39 -12 55 -8 27 6 76 29 95 3 3 18 26 33
53 15 26 31 47 35 47 4 0 15 -17 25 -37 l19 -38 18 65 c11 36 21 75 24 88 2
13 9 38 14 55 6 18 12 43 15 57 2 14 12 54 21 90 9 36 19 72 20 80 2 8 4 15 5
15 1 0 3 7 5 15 2 8 27 112 57 230 67 269 68 306 11 278z m-276 -1360 c0 -7 4
-31 8 -53 13 -74 14 -100 5 -120 -35 -79 -50 -116 -50 -127 0 -8 -4 -18 -8
-23 -5 -6 -22 -41 -37 -80 -16 -38 -32 -75 -37 -81 -10 -14 2 -26 16 -15 6 4
26 13 45 19 33 12 33 12 26 -16 -4 -15 -9 -35 -11 -45 -9 -46 -17 -57 -53 -68
-20 -6 -48 -20 -62 -30 l-24 -19 58 6 58 7 -7 -28 c-7 -30 -184 -304 -197
-305 -4 0 -7 12 -6 28 0 15 -3 56 -6 91 -10 91 -11 248 -2 257 4 4 27 -6 50
-22 40 -29 43 -29 43 -10 0 12 -13 35 -28 51 -37 39 -42 61 -24 112 8 22 12
44 9 47 -4 3 -2 6 3 6 5 0 20 -16 34 -35 27 -37 39 -43 41 -20 3 39 20 172 24
196 2 8 6 40 9 70 10 90 13 98 67 160 28 32 52 59 53 59 2 0 3 -6 3 -12z
m-388 -1294 l21 -46 42 31 c43 32 61 34 37 5 -8 -10 -13 -19 -11 -21 2 -2 1
-16 -2 -31 -4 -15 -8 -36 -10 -47 -2 -11 -12 -49 -21 -85 -19 -72 -23 -90 -24
-106 -1 -6 -26 -48 -57 -94 -31 -46 -65 -110 -76 -142 -24 -70 -35 -70 -18 1
7 32 9 86 5 153 -5 93 -3 111 20 188 33 109 32 104 51 178 9 34 18 62 20 62 2
0 12 -21 23 -46z m-132 -626 c-3 -8 -6 -5 -6 6 -1 11 2 17 5 13 3 -3 4 -12 1
-19z"/>
<path d="M7223 11227 c-12 -29 -38 -95 -59 -147 -88 -231 -126 -326 -133 -333
-4 -4 -27 16 -52 45 -24 29 -59 69 -76 88 l-33 35 12 -32 c7 -18 16 -33 20
-33 4 0 8 -4 8 -10 0 -18 123 -270 131 -270 5 0 8 3 7 8 -2 10 13 65 22 77 4
6 11 21 15 35 6 22 46 137 62 180 4 8 7 17 7 20 2 10 37 106 45 120 4 8 20 54
36 102 23 72 27 94 19 127 l-9 40 -22 -52z"/>
<path d="M7478 11189 c-22 -23 -39 -55 -43 -82 -18 -107 -36 -206 -40 -227 -5
-23 -18 -96 -30 -165 -2 -16 -7 -40 -9 -51 -2 -12 -7 -38 -10 -58 -3 -20 -10
-54 -15 -76 -8 -38 -8 -39 13 -28 27 15 278 187 291 201 7 7 4 7 -10 2 -47
-17 -145 -51 -160 -55 -5 -1 -18 -6 -29 -12 -17 -9 -18 -6 -11 49 4 32 9 67
11 78 2 11 6 38 9 60 3 22 10 65 15 95 5 30 12 73 15 95 3 22 11 73 17 113 6
40 9 74 7 76 -2 1 -12 -5 -21 -15z"/>
<path d="M6825 11018 c-3 -7 -22 -64 -44 -125 -22 -62 -38 -119 -36 -125 2 -7
6 -26 9 -43 2 -16 9 -59 15 -95 6 -36 13 -85 17 -110 10 -79 13 -94 18 -120 4
-22 9 -57 22 -153 2 -15 6 -39 9 -55 3 -15 8 -49 11 -77 3 -27 7 -52 7 -55 2
-9 -65 -175 -74 -185 -8 -8 -14 7 -10 29 1 4 -2 13 -7 20 -5 6 -12 24 -16 39
-4 16 -48 102 -99 193 l-92 165 -44 -46 c-36 -39 -41 -48 -29 -58 8 -7 48 -55
89 -107 40 -52 76 -97 79 -100 30 -27 70 -97 85 -148 10 -35 21 -65 25 -67 3
-2 35 53 69 124 l63 127 -6 124 c-3 69 -7 136 -10 150 -2 14 -7 54 -11 90 -3
36 -8 79 -10 95 -4 30 -14 120 -21 185 -2 19 -6 58 -10 85 -9 79 -6 150 10
233 5 23 -2 30 -9 10z"/>
<path d="M7720 10764 c-38 -98 -76 -158 -249 -394 -272 -371 -281 -386 -287
-484 -2 -39 -5 -101 -8 -138 -3 -38 -1 -68 4 -68 4 0 10 3 12 8 11 26 115 95
183 122 44 17 89 35 100 39 11 5 53 22 93 37 40 15 75 30 77 34 5 8 -15 92
-25 103 -10 11 -316 -173 -369 -223 -24 -22 -45 -40 -48 -40 -2 0 -1 17 2 38
4 20 9 55 11 77 2 22 6 51 9 64 5 18 179 244 337 436 98 120 129 161 133 179
6 26 26 141 32 181 2 17 6 36 8 43 8 24 -6 12 -15 -14z"/>
<path d="M4687 10578 c4 -7 8 -20 10 -28 4 -25 14 -131 18 -195 2 -33 7 -82
10 -110 3 -27 7 -84 10 -125 3 -41 8 -83 11 -93 3 -10 35 -47 71 -83 65 -64
67 -76 10 -50 -28 13 -214 82 -407 151 -36 13 -100 37 -142 53 -87 34 -102 30
-30 -8 47 -25 175 -99 222 -129 14 -8 27 -16 30 -16 3 -1 25 -13 50 -28 25
-16 121 -72 215 -126 163 -94 170 -97 180 -77 6 12 38 66 69 121 32 55 69 118
81 140 13 22 80 138 149 258 69 119 124 217 122 217 -2 0 -30 -33 -62 -72 -32
-40 -63 -78 -69 -84 -5 -6 -26 -30 -45 -54 -19 -24 -39 -48 -45 -54 -5 -6 -32
-38 -60 -71 -27 -33 -52 -62 -55 -65 -3 -3 -23 -27 -45 -55 -51 -66 -95 -111
-95 -99 0 5 11 45 23 90 l23 80 -37 80 c-70 148 -135 289 -170 366 -18 43 -38
78 -42 78 -5 0 -5 -6 0 -12z"/>
<path d="M5219 9958 c-13 -24 -33 -60 -70 -125 -12 -21 -53 -94 -92 -163 -38
-69 -73 -129 -77 -134 -5 -4 -59 23 -121 60 -63 38 -118 71 -123 73 -6 2 -61
35 -123 72 -62 38 -113 64 -113 59 0 -5 22 -47 49 -92 39 -68 211 -365 299
-518 78 -137 290 -502 309 -535 l25 -40 -6 35 c-3 19 -8 53 -11 75 -3 22 -8
46 -10 53 -3 7 -7 34 -11 60 -3 26 -10 65 -15 87 -13 60 -10 65 10 15 10 -25
22 -54 26 -65 5 -11 9 -22 9 -25 7 -32 60 -160 68 -160 5 0 6 5 2 11 -3 6 -6
296 -6 645 0 349 -2 634 -4 634 -2 0 -9 -10 -15 -22z"/>
<path d="M2033 9902 c-38 -4 -37 -2 -18 -38 14 -29 94 -113 480 -509 l194
-200 1 48 0 48 78 -42 c42 -23 82 -47 88 -53 7 -6 26 -56 44 -110 52 -165 54
-167 137 -196 l73 -26 116 -152 c65 -84 118 -151 120 -150 1 2 5 21 8 42 4 22
9 42 11 44 3 3 25 -13 49 -34 l45 -39 -4 -69 c-2 -38 -5 -70 -7 -71 -2 -2 -30
-6 -63 -9 -32 -4 -61 -9 -64 -12 -5 -5 -101 86 -101 96 0 5 33 10 78 13 20 1
14 12 -19 38 -18 13 -77 59 -133 101 -55 43 -108 83 -117 90 -9 7 -29 48 -45
92 l-29 78 -120 40 c-66 22 -126 40 -133 41 -8 0 -24 17 -37 36 -24 39 -75
137 -75 145 0 3 21 3 48 1 l47 -4 -190 186 c-104 102 -251 245 -325 318 -129
125 -218 200 -228 191 -2 -3 -5 -20 -6 -39 -3 -35 -2 -36 65 -62 43 -17 78
-38 95 -58 15 -18 68 -76 118 -131 50 -54 100 -108 111 -120 89 -98 203 -222
219 -237 21 -21 20 -21 -46 -4 -25 7 -42 -8 -19 -17 4 -1 44 -55 87 -118 43
-63 82 -116 86 -118 4 -2 8 -9 8 -17 0 -22 27 -36 78 -42 28 -2 58 -6 68 -8
11 -2 27 -4 37 -4 10 -1 22 -13 28 -29 6 -18 31 -42 67 -66 43 -27 70 -56 110
-116 73 -111 73 -108 13 -106 -57 2 -61 13 40 -110 l68 -81 -48 -59 c-26 -32
-53 -69 -60 -82 l-12 -22 53 24 c29 13 70 31 90 41 37 18 38 18 61 -3 13 -12
29 -22 35 -22 7 0 82 -23 167 -51 137 -44 157 -54 176 -82 12 -18 53 -62 92
-99 l70 -66 -34 3 c-19 2 -83 6 -144 10 l-110 7 60 -60 c44 -44 91 -76 180
-122 66 -35 152 -80 190 -100 39 -21 111 -59 161 -84 50 -26 100 -57 110 -69
33 -37 69 -91 56 -83 -6 4 -31 9 -54 11 -108 12 -137 15 -188 21 -30 3 -58 8
-62 11 -17 10 -7 -24 15 -47 24 -28 169 -217 181 -238 7 -11 4 -12 -10 -4 -11
5 -53 21 -94 35 -350 120 -376 130 -430 171 -30 22 -57 43 -60 46 -3 3 -25 21
-50 40 -25 19 -52 40 -60 47 -8 7 -78 62 -155 123 -77 61 -147 117 -156 125
-10 7 -48 37 -85 67 -79 61 -102 79 -118 93 -11 10 -99 80 -125 99 -14 11 -10
3 56 -98 18 -28 31 -51 30 -53 -4 -3 -342 132 -381 152 -38 20 -44 12 -15 -18
13 -13 54 -57 91 -98 37 -41 88 -96 113 -124 26 -27 75 -80 109 -117 36 -40
69 -68 81 -68 13 0 16 -3 8 -8 -9 -5 6 -28 48 -72 32 -36 73 -81 90 -100 37
-41 206 -225 232 -253 24 -25 16 -31 -25 -19 -45 13 -150 36 -168 36 -13 0
-99 -10 -170 -19 -14 -2 -47 -6 -75 -9 -27 -4 -59 -8 -70 -10 -11 -3 -32 -5
-47 -5 -36 -1 -35 -11 5 -38 17 -13 48 -38 67 -56 33 -30 427 -368 461 -394 8
-7 33 -15 55 -18 37 -5 54 -9 114 -20 14 -3 41 -8 60 -10 19 -3 44 -7 55 -9
11 -2 38 -7 60 -10 22 -3 51 -8 65 -11 14 -3 41 -8 60 -11 19 -2 46 -7 60 -10
14 -2 38 -7 54 -10 l29 -5 -7 48 c-4 26 -9 60 -12 76 -2 15 -6 41 -8 58 -3 17
-7 42 -10 57 -9 43 -17 94 -22 132 -2 19 -6 46 -9 60 -2 13 -7 40 -10 60 -3
20 -7 47 -10 60 -3 13 -7 42 -11 64 -3 22 -8 44 -10 48 -22 35 64 8 284 -88
159 -70 242 -103 242 -98 0 3 -25 36 -55 74 l-55 69 67 -26 c38 -14 115 -42
173 -63 181 -65 434 -162 465 -177 17 -9 27 -12 22 -7 -4 5 -159 86 -345 179
l-337 170 -42 70 c-48 78 -50 84 -25 83 9 0 51 3 92 6 153 14 170 19 171 45 0
9 2 25 5 36 4 20 8 53 19 160 4 33 8 61 9 63 2 1 37 -19 78 -45 l74 -47 164
-332 c91 -183 166 -331 168 -330 2 2 -16 53 -38 112 -23 60 -50 132 -60 159
-11 28 -51 135 -89 239 -39 104 -70 191 -68 192 1 1 32 -22 70 -52 37 -30 67
-51 67 -46 0 8 -69 175 -110 267 -28 65 -110 264 -110 270 0 3 4 4 8 1 5 -3
28 -7 53 -10 43 -6 68 -10 127 -21 15 -3 43 -8 62 -10 19 -3 46 -7 60 -10 13
-2 42 -7 65 -10 22 -3 65 -10 95 -15 52 -9 75 -13 160 -26 19 -3 43 -8 53 -11
14 -4 16 1 13 29 -6 42 -14 89 -26 153 -5 28 -12 64 -14 80 -8 50 -46 268 -51
294 -4 20 -22 48 -45 71 -3 3 -32 37 -65 75 -33 39 -93 108 -134 155 -40 47
-83 96 -95 110 -12 14 -57 67 -101 119 l-79 95 -8 -35 c-4 -19 -9 -59 -13 -89
-3 -30 -9 -75 -12 -100 -12 -79 -7 -152 19 -267 14 -62 23 -113 19 -113 -4 0
-16 10 -27 23 -11 12 -58 56 -103 97 -46 41 -98 89 -116 105 -85 79 -198 180
-205 183 -5 2 -10 -5 -13 -15 -4 -15 -5 -14 -7 5 -1 12 -3 26 -4 31 0 5 -10
18 -22 28 -12 10 -63 57 -115 105 -52 47 -107 98 -124 113 -16 15 -52 48 -78
72 -26 25 -50 44 -51 42 -2 -2 7 -26 20 -54 28 -61 133 -313 141 -338 4 -13
-23 0 -93 44 -55 34 -107 69 -116 77 -10 8 -18 12 -18 9 0 -6 226 -293 430
-547 15 -19 76 -96 134 -170 59 -74 119 -150 134 -169 15 -18 31 -40 35 -48 9
-15 156 -436 164 -468 4 -18 3 -18 -9 -5 -7 9 -31 29 -53 45 -22 17 -79 60
-127 97 -47 38 -89 68 -92 68 -4 0 -4 -12 -2 -27 3 -16 7 -58 11 -95 3 -37 8
-77 11 -90 2 -13 6 -42 8 -65 l3 -43 -46 34 c-25 19 -53 47 -62 63 -24 43
-118 222 -204 388 -58 112 -92 164 -134 208 -30 31 -58 57 -61 57 -4 0 -5 -17
-4 -37 1 -21 5 -73 7 -115 3 -42 7 -81 10 -85 3 -5 2 -15 -2 -21 -5 -9 -23 5
-57 44 -27 32 -69 72 -93 89 -42 31 -44 35 -101 208 -32 97 -65 183 -74 192
-9 9 -16 18 -16 19 0 1 13 29 29 62 15 32 31 69 35 82 8 25 -5 29 -23 8 -7 -8
-37 -33 -67 -56 l-54 -42 -67 57 c-38 31 -78 65 -90 76 -13 10 -24 18 -24 16
-1 -1 -3 -20 -5 -42 -1 -22 -3 -43 -3 -47 -2 -14 -193 117 -202 137 -14 35
-58 87 -84 99 -18 9 -30 23 -31 38 -7 78 -13 119 -18 136 -6 18 -260 203 -300
218 -13 5 -14 1 -6 -25 4 -17 11 -35 15 -41 20 -32 -11 -6 -265 230 -15 14
-71 66 -125 115 -54 50 -111 102 -127 117 -16 15 -37 52 -49 85 -10 31 -23 60
-27 63 -4 3 -22 4 -39 2z m1580 -1597 c41 -82 74 -151 72 -153 -6 -7 -319 154
-322 165 -3 7 8 18 24 25 39 17 76 56 98 105 19 40 21 41 37 25 9 -9 50 -84
91 -167z m525 -505 c41 -40 68 -79 97 -140 22 -47 49 -94 60 -106 44 -46 76
-86 73 -89 -2 -2 -26 18 -53 44 -30 29 -87 67 -142 94 -79 40 -104 59 -185
143 -51 53 -103 107 -115 120 -13 13 -23 25 -23 28 0 2 22 2 48 -1 l49 -4 -5
53 -4 53 72 -70 c39 -38 97 -95 128 -125z"/>
<path d="M2606 9885 c10 -16 35 -50 55 -75 23 -28 70 -122 124 -245 48 -110
95 -218 105 -240 10 -22 26 -58 35 -80 9 -22 32 -69 50 -105 66 -132 66 -131
130 -170 22 -13 42 -26 45 -30 11 -11 120 -80 128 -80 5 0 3 24 -5 53 -14 50
-19 139 -9 155 2 4 7 34 11 67 3 33 8 69 11 80 3 11 7 36 9 55 2 19 7 53 10
75 l5 40 -52 17 c-29 10 -54 15 -57 13 -4 -5 -4 -233 0 -330 1 -22 7 -67 15
-100 7 -32 12 -60 10 -62 -3 -3 -87 57 -101 73 -5 6 -21 18 -34 27 -17 11 -42
62 -88 179 -35 90 -65 168 -67 173 -3 13 -83 221 -100 260 -8 17 -19 46 -25
65 -9 25 -35 54 -93 100 -44 36 -92 76 -105 90 l-25 25 18 -30z"/>
<path d="M2120 9895 c0 -26 39 -89 68 -112 21 -15 43 -33 50 -40 7 -6 34 -29
60 -50 26 -21 59 -50 75 -65 15 -16 31 -28 37 -28 5 0 13 -6 17 -13 4 -6 49
-46 98 -87 50 -41 98 -83 108 -94 9 -10 17 -15 18 -10 3 28 -4 145 -16 274 -2
25 -4 58 -4 73 -1 16 -5 26 -11 22 -6 -4 -8 -10 -6 -14 3 -4 1 -23 -4 -42 -5
-19 -11 -50 -14 -69 -3 -19 -9 -49 -13 -67 l-8 -31 -204 164 c-203 163 -251
199 -251 189z"/>
<path d="M1940 9710 c0 -7 53 -78 101 -135 10 -11 55 -67 100 -125 46 -58 86
-107 89 -110 13 -11 60 -77 60 -84 0 -4 -6 -6 -12 -3 -7 2 -24 0 -38 -5 -14
-5 -41 -11 -60 -14 -19 -2 -48 -7 -65 -10 -16 -3 -36 -6 -42 -6 -26 -3 0 -13
35 -14 41 -2 162 -11 265 -20 69 -7 76 -4 54 18 -6 7 -32 38 -57 68 -25 30
-47 57 -50 60 -3 3 -30 34 -60 70 -30 36 -57 67 -60 70 -3 3 -39 46 -80 95
-41 50 -82 98 -91 107 -21 21 -89 50 -89 38z"/>
<path d="M8735 9107 l0 -432 422 1 c233 0 425 3 428 6 3 2 -34 11 -82 18 -49
8 -92 15 -98 16 -21 5 -81 16 -100 19 -21 3 -133 22 -175 30 -14 2 -65 11
-115 19 -120 21 -134 24 -144 30 -4 3 -14 40 -21 83 -7 43 -14 89 -16 103 -3
14 -7 39 -11 55 -4 17 -7 39 -8 50 -2 19 -8 52 -20 118 -6 32 -11 59 -19 107
-3 19 -9 49 -12 65 -3 17 -8 48 -11 70 -15 108 -18 40 -18 -358z"/>
<path d="M9350 9309 c-48 -41 -53 -45 -81 -59 -13 -7 -26 -16 -29 -19 -3 -4
-75 -56 -160 -115 -85 -60 -156 -110 -158 -111 -6 -5 -50 -180 -47 -184 2 -2
45 7 94 19 84 20 92 25 113 59 12 20 25 38 28 41 3 3 31 41 60 85 30 44 57 82
60 85 3 3 32 43 65 90 32 47 67 95 78 107 31 34 17 35 -23 2z"/>
<path d="M1950 9218 c14 -14 41 -44 60 -68 88 -108 98 -117 178 -145 42 -15
95 -36 117 -45 22 -10 67 -27 100 -39 33 -13 74 -29 90 -36 17 -7 91 -36 166
-65 l136 -52 54 -71 c78 -102 77 -98 22 -81 -62 20 -468 30 -456 11 4 -7 9
-20 10 -30 5 -30 33 -78 43 -72 9 5 26 8 115 20 28 3 61 8 75 11 135 24 214
24 298 -2 12 -3 22 -3 22 1 0 4 -25 43 -55 87 -30 44 -55 84 -55 89 0 5 -3 9
-7 9 -5 0 -15 13 -24 28 -21 37 -157 105 -549 274 -224 97 -226 98 -270 137
-19 18 -48 39 -65 47 l-30 16 25 -24z"/>
<path d="M8598 9095 c-10 -13 -18 -26 -18 -28 0 -3 -64 -115 -141 -249 -78
-133 -149 -256 -159 -273 -39 -71 -92 -161 -100 -175 -31 -49 -239 -412 -244
-427 -4 -11 8 -4 31 18 21 19 61 53 88 74 28 22 56 45 63 52 27 26 99 83 106
83 3 0 -2 -8 -11 -18 -20 -20 -96 -109 -128 -150 -11 -14 -29 -35 -40 -46 -29
-32 -32 -56 -3 -30 13 12 50 36 83 54 77 42 75 41 363 209 134 77 245 141 247
141 1 0 45 25 96 56 51 31 103 60 114 65 11 5 34 18 50 29 17 11 42 26 58 32
15 7 27 15 27 19 0 4 11 10 25 13 60 15 4 21 -192 19 -114 -1 -213 -2 -218 -3
-6 -1 -27 -2 -48 -1 l-38 1 4 280 c2 154 3 280 3 280 -1 0 -9 -11 -18 -25z"/>
<path d="M6296 9039 c-6 -37 0 -62 41 -171 26 -70 51 -128 54 -128 3 0 16 25
28 55 l23 56 -57 102 c-75 135 -80 140 -89 86z"/>
<path d="M7185 8827 c-11 -7 -22 -14 -25 -17 -3 -3 -16 -11 -30 -18 -22 -11
-76 -43 -132 -77 -11 -7 -18 -32 -23 -74 l-7 -64 69 54 c37 30 77 62 88 72 11
11 30 26 42 34 20 13 60 104 45 102 -4 0 -16 -6 -27 -12z"/>
<path d="M6190 8665 c-1 -14 94 -214 101 -215 13 -1 26 75 15 86 -15 15 -82
95 -101 119 -8 11 -15 16 -15 10z"/>
<path d="M4029 8466 c-2 -3 -4 -61 -3 -131 1 -139 1 -139 77 -188 l29 -19 -6
44 c-3 23 -8 54 -11 68 -2 14 -7 41 -9 60 -3 19 -7 44 -10 55 -2 11 -5 27 -5
35 -1 16 -55 82 -62 76z"/>
<path d="M7019 8393 c-53 -19 -96 -39 -96 -46 0 -7 -4 -25 -8 -40 -7 -27 -4
-26 86 33 81 53 135 93 119 89 -3 -1 -48 -17 -101 -36z"/>
<path d="M4337 8153 c-10 -37 -20 -79 -22 -100 -2 -11 -6 -31 -10 -42 -5 -16
2 -31 24 -57 l31 -35 -6 123 c-3 68 -7 124 -9 126 -2 2 -5 -5 -8 -15z"/>
<path d="M5977 8113 c-6 -17 -45 -89 -121 -221 -20 -35 -36 -66 -36 -68 0 -2
-10 -21 -23 -42 -13 -20 -41 -68 -62 -107 -21 -38 -51 -95 -68 -125 -16 -30
-37 -68 -45 -84 l-15 -30 -13 30 c-103 233 -170 402 -166 417 1 5 -2 6 -7 3
-6 -4 -6 -18 -1 -36 5 -16 11 -57 15 -92 4 -35 8 -70 10 -78 2 -8 6 -43 10
-77 9 -79 11 -98 20 -152 3 -25 2 -42 -3 -40 -5 2 -94 55 -198 117 -104 62
-198 118 -209 125 -11 6 -55 33 -98 59 -43 27 -80 48 -83 48 -3 0 -26 14 -51
32 -55 37 -49 23 15 -35 95 -88 108 -100 152 -141 40 -38 293 -239 428 -341
28 -21 52 -40 52 -41 0 -1 -25 -52 -56 -114 -32 -64 -52 -115 -46 -119 21 -13
158 -110 245 -172 106 -77 91 -82 154 56 23 50 56 122 73 160 18 39 36 78 41
87 8 14 -8 29 -97 88 -60 41 -103 77 -101 83 147 349 260 654 282 759 2 9 8
26 14 37 13 24 14 31 2 31 -5 0 -11 -8 -14 -17z"/>
<path d="M8545 8059 c-60 -21 -157 -55 -215 -75 -58 -19 -113 -39 -122 -45
-10 -5 -27 -9 -37 -9 -11 0 -22 -4 -26 -9 -3 -5 -20 -13 -37 -17 -18 -3 -39
-10 -48 -14 -8 -5 -35 -16 -60 -25 -33 -11 -57 -31 -90 -72 -25 -31 -55 -68
-67 -82 -12 -14 -41 -48 -64 -76 -23 -27 -51 -61 -63 -75 -69 -82 -136 -168
-136 -176 0 -7 236 -103 270 -110 3 0 16 -5 30 -11 14 -6 57 -22 95 -36 39
-14 104 -38 145 -54 41 -17 84 -33 94 -37 19 -6 18 -8 -5 -20 -13 -7 -94 -65
-179 -130 -85 -65 -182 -138 -215 -163 -33 -25 -62 -50 -64 -55 -2 -6 1 -8 6
-5 6 4 32 9 59 12 27 2 63 7 79 11 37 8 39 9 -120 -122 -168 -138 -363 -300
-410 -341 -22 -19 102 60 275 174 173 114 317 210 320 213 9 9 180 9 180 1 0
-5 -16 -44 -35 -87 -20 -44 -40 -90 -46 -104 -6 -14 -15 -32 -19 -41 -11 -20
13 -43 133 -129 l88 -63 -74 -43 c-71 -41 -75 -42 -148 -39 -90 5 -262 15
-344 21 -33 2 -103 6 -155 9 -52 3 -110 7 -128 9 -19 2 -30 0 -25 -4 4 -5 29
-11 55 -14 26 -3 58 -8 70 -11 13 -2 37 -7 53 -9 36 -6 211 -35 240 -40 11 -2
36 -7 55 -10 19 -3 49 -8 65 -11 17 -3 47 -8 68 -11 21 -3 46 -7 55 -9 9 -2
26 -4 37 -5 23 -2 -90 -59 -118 -60 -27 0 -15 -24 14 -25 28 -2 131 -15 163
-21 12 -2 44 -6 71 -8 28 -3 59 -7 70 -10 38 -8 159 -20 213 -20 46 -1 66 -8
44 -18 -4 -1 -25 -25 -47 -53 -22 -27 -44 -55 -50 -61 -5 -6 -23 -28 -40 -49
-16 -21 -35 -43 -40 -49 -6 -6 -60 -72 -120 -146 -60 -74 -118 -144 -127 -154
-10 -11 -18 -22 -18 -26 0 -3 46 -23 103 -44 505 -188 461 -174 527 -163 19 3
67 13 105 21 67 14 110 22 165 31 58 9 96 16 110 20 8 2 31 7 50 10 19 3 42 8
50 10 8 2 31 6 50 9 19 3 46 8 60 11 14 3 38 8 55 11 40 7 41 9 3 35 -18 13
-35 26 -38 29 -3 3 -58 45 -123 94 -80 60 -136 94 -172 105 -30 9 -57 20 -61
24 -4 4 -15 7 -25 7 -10 0 -30 5 -46 11 l-28 11 40 13 c68 23 279 89 291 91 7
1 38 11 70 22 33 11 85 28 117 38 41 12 56 21 53 31 -4 10 -1 11 12 4 18 -10
35 -5 307 81 88 27 183 57 210 66 28 8 55 19 60 25 7 7 5 8 -5 5 -9 -3 -40 -2
-70 4 -30 5 -73 11 -95 14 -22 2 -51 6 -65 8 -14 2 -50 7 -80 11 -30 4 -62 9
-70 11 -8 1 -26 3 -40 3 l-25 1 25 20 c14 11 49 29 78 41 28 12 52 26 52 31 0
5 -4 7 -8 4 -5 -3 -31 -8 -58 -11 -27 -4 -60 -8 -74 -10 -115 -18 -191 -29
-278 -40 -12 -2 -53 -8 -90 -15 -37 -6 -80 -13 -97 -15 -16 -2 -30 -4 -30 -5
0 -1 -16 -3 -35 -5 -19 -2 -52 -6 -72 -9 -21 -3 -55 -8 -75 -11 -21 -3 -49 -8
-63 -11 -14 -3 -41 -6 -60 -8 -19 -2 -66 -9 -104 -15 -40 -7 -72 -8 -75 -3 -3
5 -22 12 -41 15 -48 8 -82 15 -173 33 -42 8 -90 17 -105 20 -15 3 -34 7 -42 9
-8 3 -33 7 -55 11 -22 3 -47 8 -55 9 -8 2 -19 4 -25 4 -14 1 50 31 190 87 66
26 122 49 124 51 8 6 -34 32 -51 33 -10 0 -18 5 -18 10 0 6 -5 10 -12 10 -7 0
-56 19 -109 42 l-97 42 52 24 c28 14 56 24 61 24 6 -1 66 -3 135 -6 319 -12
457 -18 480 -20 14 -1 39 2 55 7 17 4 39 11 50 14 11 3 32 7 48 10 15 3 27 8
27 12 0 3 -56 33 -124 66 -68 33 -123 61 -121 63 1 2 13 5 26 7 24 5 44 9 104
21 17 3 50 15 75 26 41 19 51 19 105 9 33 -7 71 -14 85 -17 14 -2 57 -12 95
-20 99 -23 133 -26 155 -14 17 9 26 1 76 -67 31 -43 61 -82 65 -87 8 -9 2 91
-6 104 -11 18 -16 100 -6 101 14 2 23 4 41 12 8 3 44 17 79 30 57 21 92 47 62
47 -6 0 -24 8 -41 19 l-31 19 103 51 c89 44 112 51 171 53 37 1 67 5 67 8 0 3
9 11 20 18 17 10 31 8 93 -19 39 -17 79 -31 87 -31 8 -1 56 18 105 42 50 23
123 58 163 77 69 32 80 44 48 49 -7 1 -24 5 -37 9 -22 7 -20 9 21 22 40 12 65
19 95 27 6 1 35 10 65 21 30 10 55 17 55 16 0 -1 32 9 70 22 70 25 201 67 220
71 6 2 42 13 80 25 68 22 84 22 186 6 21 -4 28 1 41 30 10 24 12 35 4 36 -29
3 -85 -3 -121 -13 -22 -5 -47 -11 -55 -13 -8 -2 -71 -18 -140 -35 -69 -18
-135 -34 -147 -36 -12 -2 -35 -9 -50 -15 -16 -6 -30 -11 -33 -11 -3 0 -9 -2
-15 -3 -5 -2 -59 -15 -120 -30 -60 -14 -126 -30 -145 -36 -19 -6 -42 -12 -50
-13 -20 -4 -72 -17 -90 -22 -9 -3 1 -13 28 -26 48 -25 46 -30 -31 -72 -26 -14
-58 -33 -71 -41 -19 -13 -32 -14 -72 -5 -27 6 -62 14 -79 16 -16 3 -39 7 -50
9 -11 3 -33 7 -50 11 -56 11 -57 13 -18 46 21 18 54 47 73 65 113 101 95 93
203 92 53 -1 97 -4 97 -8 0 -3 -9 -17 -20 -31 -38 -49 -27 -49 125 -5 50 15
97 28 105 30 8 2 15 4 15 5 0 1 7 3 15 5 8 1 35 8 60 16 25 7 50 13 55 15 6 1
36 9 69 19 32 9 66 19 75 20 9 2 16 4 16 5 0 1 7 3 15 5 8 2 47 13 85 25 39
12 80 23 93 26 51 10 179 54 197 68 19 14 19 14 -5 35 -31 25 -41 26 -66 3
-45 -41 -91 -71 -119 -76 -42 -7 -77 -15 -149 -31 -33 -8 -75 -17 -93 -20 -18
-3 -43 -9 -57 -15 -15 -5 -26 -8 -26 -5 0 2 -21 -2 -47 -10 -27 -7 -66 -17
-88 -21 -22 -4 -42 -8 -45 -9 -18 -5 -69 -16 -90 -20 -14 -3 -38 -7 -55 -11
l-30 -6 35 31 c31 28 31 36 -1 33 -3 -1 -41 -4 -85 -7 -43 -4 -101 -8 -129
-10 -27 -3 -67 -5 -88 -6 -38 -2 -51 -13 -102 -83 -43 -60 -52 -67 -77 -61
-17 4 -45 -4 -88 -24 -52 -26 -80 -32 -159 -37 -52 -3 -98 -7 -102 -10 -18
-11 -18 18 1 48 25 42 25 48 -2 42 -13 -2 -39 -7 -58 -10 -19 -3 -48 -8 -65
-11 -51 -9 -80 -8 -80 2 0 20 -60 165 -67 165 -5 0 -8 -15 -8 -32 -1 -41 -10
-139 -15 -155 -3 -7 -15 -13 -28 -13 -13 0 -35 -9 -48 -21 -36 -31 -160 -141
-185 -164 -69 -65 -74 -68 -122 -71 -27 -3 -82 -15 -122 -29 -41 -14 -77 -25
-82 -25 -8 0 107 175 140 213 20 23 7 23 -84 -3 -65 -18 -213 -102 -371 -211
-23 -16 -44 -29 -48 -29 -3 0 -18 -8 -33 -19 -121 -83 -156 -102 -200 -107
-25 -3 -49 -6 -52 -7 -3 -1 -7 1 -10 4 -5 6 128 196 158 226 17 16 6 36 -16
29 -10 -3 -39 -8 -67 -11 -27 -3 -61 -7 -74 -10 -13 -2 -47 -7 -75 -10 -28 -2
-61 -7 -73 -9 -13 -3 -23 -2 -23 2 0 4 34 36 76 72 42 35 81 69 88 75 6 6 61
54 121 106 108 93 113 96 260 153 83 32 155 63 161 67 6 5 19 10 30 12 10 2
26 7 34 10 21 9 74 30 80 32 3 1 14 5 25 10 11 4 88 35 170 67 83 32 164 65
180 72 17 7 65 26 107 42 43 16 78 32 78 35 0 4 -39 5 -87 2 -86 -4 -88 -4
-63 13 14 10 27 21 30 24 3 3 43 35 90 70 47 36 87 67 90 70 3 3 33 27 68 54
34 26 62 49 62 51 0 2 -15 -1 -32 -6 -18 -5 -49 -12 -68 -15 -19 -3 -48 -9
-65 -13 -16 -5 -57 -14 -90 -21 -33 -7 -94 -21 -135 -30 -41 -10 -101 -24
-132 -30 -32 -6 -58 -16 -58 -22 0 -5 -7 -7 -16 -4 -8 3 -34 2 -57 -4 -23 -5
-57 -12 -76 -15 -19 -3 -37 -8 -41 -10 -4 -2 -20 -7 -36 -9 -16 -3 -40 -8 -54
-11 -14 -3 -36 -8 -50 -11 -14 -3 -41 -9 -60 -14 -19 -5 -47 -11 -63 -14 -15
-3 -35 -7 -45 -10 -9 -3 -29 -7 -45 -10 -15 -3 -37 -8 -49 -12 -15 -4 4 22 55
77 67 73 83 98 123 194 25 61 52 124 59 140 19 41 45 107 45 111 0 7 -14 3
-125 -37z m1438 -1067 l28 -7 -56 -49 c-59 -51 -83 -60 -195 -71 -36 -4 -67
-8 -70 -10 -3 -1 -34 -6 -70 -9 -55 -6 -77 -9 -109 -15 -2 -1 9 -11 25 -23 38
-30 45 -49 19 -55 -5 -1 -25 -6 -42 -12 -30 -9 -37 -6 -83 30 -56 44 -55 42
-19 126 16 37 24 44 66 56 26 8 49 11 51 7 2 -5 -4 -25 -13 -46 -8 -20 -13
-39 -11 -41 2 -3 22 4 43 14 21 10 40 18 43 19 5 1 67 27 115 49 17 7 50 21
75 31 25 9 49 20 53 24 8 7 101 -4 150 -18z m-626 -92 c-5 -22 -2 -32 11 -39
15 -9 15 -10 -3 -11 -15 0 -17 -2 -6 -9 7 -5 11 -13 7 -19 -3 -6 -2 -13 4 -17
6 -4 8 -11 5 -16 -4 -5 -1 -9 6 -9 7 0 9 -3 6 -7 -4 -3 0 -17 9 -31 23 -35 9
-44 -71 -44 -19 0 -36 1 -37 2 -2 0 -39 3 -83 6 -88 5 -177 12 -185 13 -3 1
11 11 30 23 19 12 37 25 40 28 11 12 161 110 169 110 5 0 11 5 13 10 2 8 66
37 87 40 2 0 1 -13 -2 -30z m-637 -193 c0 -2 -11 -18 -25 -37 -30 -40 -32 -60
-7 -60 10 0 22 -4 28 -9 5 -5 18 -11 29 -13 26 -6 24 -7 -160 -59 -125 -35
-162 -42 -220 -39 -141 6 -165 4 -254 -20 -62 -17 -44 -3 26 21 37 13 70 23
73 24 9 0 144 89 151 98 3 5 12 9 20 10 8 2 19 6 25 10 7 4 29 9 50 13 22 3
47 10 57 15 9 5 17 8 17 5 0 -3 15 0 33 5 17 6 43 12 57 15 14 2 39 8 55 13
34 10 45 12 45 8z"/>
<path d="M7030 7857 c0 -2 -17 -80 -39 -173 -21 -93 -42 -190 -45 -215 -4 -25
-9 -57 -11 -70 -2 -13 -9 -62 -15 -109 -12 -93 -19 -143 -25 -176 -2 -12 -7
-48 -10 -79 -4 -31 -13 -58 -19 -61 -6 -2 -59 -6 -118 -8 -116 -5 -127 -8
-126 -34 0 -9 -3 -51 -7 -92 -10 -105 -14 -145 -20 -224 -3 -37 -8 -72 -11
-77 -5 -9 18 -8 141 5 22 3 81 8 130 12 50 4 99 8 110 10 11 1 27 3 35 3 12 1
16 14 18 49 8 186 13 219 30 208 4 -2 28 -1 52 4 25 4 68 11 95 14 28 3 59 8
71 10 12 2 45 7 75 11 30 3 65 8 79 10 14 2 45 7 70 10 25 3 69 10 97 16 29 6
54 10 55 9 2 -1 16 3 31 9 15 6 42 13 60 16 18 4 52 11 77 16 25 6 56 13 70
15 14 3 30 10 35 16 7 7 6 9 -1 5 -6 -3 -187 -9 -403 -12 -322 -5 -391 -4
-385 7 7 11 121 163 157 208 7 8 27 35 46 60 19 25 39 50 45 55 6 6 20 21 31
34 l20 24 -22 -12 c-13 -6 -23 -15 -23 -19 0 -4 -17 -18 -38 -32 -20 -14 -39
-27 -42 -30 -14 -15 -251 -191 -263 -196 -12 -4 -13 23 -10 163 7 363 10 623
6 623 -1 0 -3 -2 -3 -3z"/>
<path d="M3370 7801 c0 -10 51 -47 75 -54 11 -4 38 -9 60 -12 22 -4 77 -12
122 -19 62 -10 81 -10 75 -1 -4 6 -20 30 -37 52 l-30 41 -132 0 c-73 0 -133
-3 -133 -7z"/>
<path d="M10789 7686 c-2 -2 -22 -6 -44 -10 -22 -3 -51 -8 -65 -11 -14 -3 -41
-8 -60 -11 -19 -3 -43 -11 -52 -17 -14 -10 -234 -187 -293 -235 -102 -85 -264
-210 -280 -217 -11 -4 -33 -9 -50 -10 -53 -5 -129 -16 -137 -21 -19 -12 -5 8
38 55 25 27 88 121 139 208 l93 158 -36 12 c-54 17 -82 16 -89 -4 -47 -132
-138 -348 -151 -362 -72 -75 -86 -95 -61 -93 6 1 199 13 239 16 43 2 249 138
477 314 12 9 31 24 43 32 12 8 54 39 93 69 69 51 175 108 219 116 11 3 23 7
26 10 6 6 -42 7 -49 1z"/>
<path d="M1720 7654 c0 -6 16 -51 35 -100 19 -49 35 -96 35 -104 0 -9 4 -20 9
-25 5 -6 24 -55 44 -110 19 -55 56 -154 81 -219 25 -66 44 -122 42 -124 -2 -2
-33 26 -68 62 l-63 65 -70 6 c-38 3 -92 8 -120 11 -27 3 -72 7 -100 9 -27 3
-79 7 -115 10 -76 7 -137 14 -165 21 -11 2 -4 -4 15 -13 62 -31 281 -133 285
-133 2 0 51 -23 109 -51 l107 -50 87 25 c47 14 88 23 90 22 4 -5 -37 -41 -158
-141 -58 -48 -125 -103 -150 -123 -24 -20 -51 -44 -60 -52 -9 -8 -49 -42 -90
-74 -77 -62 -113 -93 -95 -84 6 3 73 41 150 85 77 45 157 90 178 102 21 12
108 62 192 111 85 50 170 98 190 107 19 9 35 20 35 24 0 3 -29 56 -64 117 -36
61 -76 131 -89 154 -13 24 -75 131 -137 238 -63 107 -119 206 -127 220 -7 14
-13 20 -13 14z"/>
<path d="M10713 7545 c-117 -170 -153 -221 -163 -233 -15 -17 -3 -34 20 -27
19 6 155 32 205 40 74 10 103 16 150 26 28 5 64 12 80 15 17 2 41 6 55 9 14 3
40 8 59 11 18 3 42 7 53 9 21 4 85 54 71 56 -22 3 -238 -25 -238 -31 0 -1 -13
-3 -30 -5 -63 -7 -122 -16 -175 -25 -30 -5 -70 -12 -87 -15 -20 -3 -33 -1 -33
5 0 6 17 57 39 115 21 58 37 105 35 105 -1 0 -20 -25 -41 -55z"/>
<path d="M3839 7535 c-3 -2 -16 -5 -29 -8 -68 -11 -150 -30 -146 -35 3 -2 45
-6 93 -8 48 -2 88 -4 88 -4 0 -1 14 -3 31 -4 27 -2 30 0 22 13 -12 19 -54 52
-59 46z"/>
<path d="M2060 7316 c0 -4 15 -34 34 -65 154 -258 226 -381 226 -385 0 -6
-280 -166 -290 -166 -5 0 -10 -3 -12 -7 -1 -5 -19 -16 -38 -25 -60 -30 -145
-78 -140 -79 19 -5 1358 -3 1352 2 -6 5 -184 71 -294 110 -59 20 -38 22 57 4
49 -9 102 -18 119 -20 17 -2 31 -4 31 -5 0 -1 13 -4 29 -6 26 -5 28 -3 16 10
-7 9 -16 16 -21 16 -5 0 -33 16 -63 35 -30 19 -57 35 -59 35 -3 0 -65 36 -140
79 -74 43 -154 90 -178 104 -24 13 -73 41 -109 62 -36 21 -80 46 -98 56 -18
11 -93 54 -165 96 -73 42 -150 87 -172 100 -22 12 -47 26 -55 30 -8 3 -18 11
-22 17 -4 6 -8 7 -8 2z"/>
<path d="M11105 7172 c-124 -45 -314 -114 -422 -152 -35 -13 -63 -26 -63 -30
0 -4 23 -18 52 -30 28 -12 101 -46 161 -76 61 -30 112 -53 114 -51 3 3 -45 47
-140 128 l-28 24 133 52 c73 29 193 75 266 103 123 48 156 69 115 71 -10 1
-29 2 -43 3 -14 1 -79 -18 -145 -42z"/>
<path d="M8832 7157 c-22 -9 -59 -45 -117 -117 -47 -58 -85 -108 -85 -113 0
-4 12 -5 28 -3 84 15 97 17 98 19 10 14 124 217 124 221 0 8 -9 6 -48 -7z"/>
<path d="M8391 6967 c-65 -99 -71 -113 -43 -98 17 9 24 11 43 11 9 0 38 57 43
85 1 6 8 27 15 48 7 21 11 40 8 43 -2 2 -32 -38 -66 -89z"/>
<path d="M4116 6913 c46 -76 87 -145 91 -153 4 -7 49 -84 101 -170 52 -85 103
-172 113 -192 l19 -37 -22 4 c-28 6 -81 13 -138 20 -25 3 -63 8 -85 11 -22 4
-51 7 -65 9 -65 6 -137 18 -158 26 -15 6 -21 5 -17 -1 3 -5 20 -14 38 -19 18
-5 82 -30 142 -56 61 -25 145 -60 188 -78 42 -18 77 -34 77 -37 0 -3 -21 -17
-47 -31 -27 -15 -82 -45 -123 -69 -41 -23 -104 -58 -140 -77 -36 -20 -83 -46
-105 -58 -277 -155 -318 -181 -240 -151 22 8 94 31 160 51 66 20 238 84 382
141 143 57 265 104 270 104 4 0 33 -40 63 -88 52 -83 73 -112 83 -112 3 0 47
20 98 44 52 24 114 53 139 64 25 11 68 31 96 44 l51 24 -79 109 c-43 61 -99
140 -124 177 l-46 67 -104 -55 c-70 -37 -111 -53 -124 -49 -11 4 -20 11 -20
16 0 5 -9 19 -19 31 -37 43 -56 66 -73 90 -89 121 -237 302 -318 388 -54 58
-107 115 -118 128 -41 47 -27 17 54 -115z"/>
<path d="M9982 6794 c-57 -29 -104 -52 -105 -52 -15 -4 -37 -16 -37 -21 0 -4
31 -18 68 -30 53 -18 91 -42 168 -103 54 -44 123 -99 152 -121 l53 -40 39 38
c22 22 40 42 40 45 0 3 -26 18 -58 35 -31 16 -85 47 -119 67 -35 21 -65 38
-68 38 -3 0 -22 10 -43 23 -20 13 -59 29 -87 37 -84 22 -82 24 70 82 50 18 81
17 225 -8 14 -2 45 -6 70 -9 25 -3 52 -8 60 -10 19 -5 60 -12 125 -21 28 -3
59 -7 70 -9 11 -2 40 -6 65 -9 25 -4 52 -9 60 -11 54 -14 113 -14 145 -1 19 8
35 12 35 9 0 -3 6 -1 13 4 6 6 42 20 79 32 86 28 96 42 19 26 -60 -12 -166
-12 -256 0 -27 4 -63 8 -80 10 -36 3 -139 15 -180 20 -16 2 -57 7 -90 10 -33
3 -76 9 -95 12 -19 3 -80 6 -135 7 l-101 2 -102 -52z"/>
<path d="M6074 6638 c-89 -59 -121 -88 -93 -88 6 0 31 -16 55 -36 25 -20 46
-35 48 -33 2 2 11 38 21 79 10 41 22 83 27 93 13 25 -1 21 -58 -15z"/>
<path d="M6162 6552 c-26 -95 -26 -93 -6 -85 9 3 30 7 48 8 17 2 36 3 43 4 11
1 -37 121 -57 144 -4 4 -16 -28 -28 -71z"/>
<path d="M3150 6544 c-58 -13 -123 -25 -145 -28 -40 -6 -69 -11 -115 -21 -31
-7 -59 -12 -130 -25 -30 -6 -66 -12 -80 -15 -14 -3 -38 -7 -55 -10 -16 -3 -41
-8 -55 -10 -14 -3 -36 -7 -49 -10 -13 -2 -25 -6 -27 -7 -2 -2 56 -49 129 -104
130 -100 134 -101 267 -144 l135 -43 -140 -44 c-77 -25 -213 -68 -303 -96
-141 -44 -161 -53 -146 -64 21 -15 2 -18 -25 -4 -13 7 -60 -4 -172 -40 -85
-27 -164 -52 -176 -55 -12 -2 -35 -9 -50 -15 -16 -6 -35 -13 -43 -15 -8 -2
-31 -8 -50 -13 -19 -5 -27 -10 -17 -11 19 -3 36 -7 40 -9 1 -1 22 -4 47 -6 25
-2 63 -6 85 -9 22 -3 60 -8 85 -11 25 -3 63 -8 85 -11 22 -4 50 -7 63 -7 12
-1 22 -4 22 -8 0 -4 -49 -31 -110 -61 -105 -51 -134 -72 -88 -63 12 3 44 7 72
10 28 3 60 8 71 10 21 5 78 13 130 20 17 3 48 7 70 11 22 4 51 8 65 9 38 4
113 15 130 20 8 2 36 7 62 10 43 4 82 10 148 20 14 2 54 9 90 14 36 6 85 13
110 16 25 3 56 7 70 10 14 3 41 8 60 10 19 2 48 6 63 8 15 3 49 0 75 -5 46 -9
71 -14 115 -22 12 -3 47 -10 77 -16 30 -6 69 -13 85 -16 17 -3 48 -9 69 -14
22 -5 44 -7 48 -4 4 3 8 1 8 -5 0 -6 -12 -14 -27 -17 -16 -4 -50 -17 -78 -29
-109 -49 -142 -63 -177 -76 -21 -7 -38 -16 -38 -20 0 -4 39 -24 88 -44 129
-56 192 -85 192 -90 0 -2 -20 -13 -45 -24 -49 -22 -41 -21 -465 -5 -196 7
-236 8 -260 1 -8 -2 -41 -9 -73 -17 -32 -7 -54 -17 -50 -21 5 -5 62 -35 127
-67 l119 -59 -81 -16 c-45 -9 -102 -26 -128 -38 l-48 -21 -130 27 c-246 52
-231 49 -261 40 -16 -4 -28 6 -60 51 -68 95 -66 94 -60 54 3 -19 8 -60 11 -90
l6 -56 -98 -37 c-55 -20 -105 -37 -111 -37 -29 0 -4 -28 41 -48 16 -7 27 -14
25 -16 -2 -2 -44 -25 -94 -51 -67 -35 -104 -48 -145 -52 -79 -6 -84 -7 -113
-25 -24 -17 -28 -16 -108 16 l-83 34 -70 -33 c-39 -18 -116 -54 -171 -80
l-100 -48 35 -9 c41 -11 63 -28 36 -28 -9 0 -60 -14 -113 -31 -52 -17 -100
-32 -107 -34 -6 -1 -18 -5 -26 -8 -8 -3 -40 -13 -70 -22 -30 -9 -62 -19 -70
-22 -8 -3 -19 -7 -25 -8 -5 -2 -62 -20 -125 -41 -118 -39 -161 -45 -241 -30
-46 8 -47 7 -57 -23 -12 -33 -12 -48 0 -44 4 2 29 5 55 7 27 3 57 7 68 10 11
3 45 12 77 20 31 8 67 18 80 20 12 3 77 19 143 37 66 17 127 32 135 34 8 2 16
4 18 5 1 2 5 3 10 4 4 1 23 6 42 11 19 4 42 9 50 10 8 1 22 5 30 8 8 4 26 9
40 11 14 3 65 16 113 29 48 13 89 21 92 17 2 -3 -67 -26 -153 -49 -86 -24
-164 -46 -172 -49 -8 -3 -19 -6 -25 -8 -33 -8 -235 -66 -263 -75 -18 -6 -44
-13 -59 -15 -15 -3 -30 -7 -35 -10 -4 -3 -42 -14 -84 -25 -79 -20 -154 -53
-154 -67 0 -15 64 -46 68 -34 2 7 8 12 13 12 6 0 24 14 42 30 30 28 59 41 130
55 56 11 81 16 146 31 96 23 104 25 131 30 14 2 39 8 55 11 17 4 35 8 40 9 6
0 17 4 25 7 8 4 26 8 40 11 14 2 46 9 73 15 26 6 64 14 85 17 l37 6 -34 -31
c-30 -27 -33 -35 -11 -33 3 0 39 3 80 6 41 4 109 9 150 11 81 6 115 11 129 20
5 3 31 35 58 71 43 59 51 65 76 60 26 -5 113 27 128 47 3 4 53 10 110 13 57 3
110 7 117 9 17 6 15 -10 -8 -47 -21 -34 -26 -53 -12 -44 4 2 28 7 52 10 25 3
55 8 66 10 12 2 38 7 59 10 20 4 41 8 45 11 5 3 23 -33 41 -80 34 -90 45 -108
45 -72 3 116 21 186 45 172 6 -4 61 40 125 100 150 139 170 153 216 153 44 -1
55 2 118 28 19 8 48 17 63 20 28 5 26 0 -48 -106 -42 -61 -75 -114 -72 -116 7
-8 159 36 177 50 8 7 94 62 190 121 96 60 177 113 178 117 2 4 8 8 13 8 5 0
39 19 76 43 50 32 80 44 112 46 25 1 48 4 53 7 22 14 0 -22 -88 -139 -63 -86
-88 -126 -75 -122 11 3 40 8 63 10 58 5 177 20 241 31 32 5 34 -2 8 -25 -83
-73 -146 -128 -155 -136 -117 -106 -190 -164 -216 -171 -3 0 -14 -4 -25 -9
-11 -5 -85 -34 -165 -65 -80 -31 -154 -61 -165 -65 -11 -5 -22 -9 -25 -10 -3
-1 -14 -5 -25 -10 -11 -5 -108 -43 -215 -85 -107 -42 -204 -80 -215 -85 -11
-4 -24 -9 -30 -11 -5 -1 -28 -10 -50 -20 -22 -10 -43 -19 -47 -20 -5 -1 -10
-3 -13 -4 -3 -1 -8 -3 -12 -4 -19 -5 -83 -35 -83 -40 0 -2 12 -2 28 0 44 9
244 12 235 4 -4 -4 -46 -36 -93 -71 -47 -35 -87 -66 -90 -69 -11 -13 -136
-103 -147 -107 -27 -11 -11 -21 20 -13 17 5 43 11 57 14 14 3 57 12 95 21 39
8 79 17 90 19 11 3 60 14 108 25 48 12 96 21 106 21 11 0 21 7 25 15 4 10 13
14 28 10 13 -3 55 2 93 11 39 9 79 18 90 19 11 2 39 8 61 14 23 6 62 15 85 20
24 5 95 20 158 35 63 14 115 25 117 23 2 -1 -16 -23 -39 -48 -142 -155 -143
-157 -210 -315 -36 -85 -64 -154 -63 -154 0 0 66 23 146 51 80 28 156 54 170
59 14 4 104 36 200 70 96 34 186 65 200 69 25 7 77 66 334 376 36 43 66 82 66
86 0 4 -10 9 -22 12 -13 3 -45 14 -73 25 -27 10 -117 45 -200 76 -82 31 -157
60 -165 63 -8 3 -17 7 -20 8 -3 1 -12 4 -20 8 -8 3 -43 16 -78 28 -34 12 -64
25 -67 29 -2 3 8 15 22 26 69 51 139 104 153 116 8 8 72 56 142 108 118 87
154 122 111 106 -9 -4 -37 -9 -62 -12 -26 -3 -57 -7 -71 -9 l-25 -4 25 20 c14
12 36 30 50 42 23 20 237 197 268 222 7 5 21 17 30 26 9 8 63 52 120 98 56 45
102 84 102 87 0 5 -18 -4 -35 -19 -5 -4 -129 -87 -275 -184 -146 -96 -278
-185 -295 -196 -24 -18 -45 -22 -113 -23 -46 0 -85 3 -88 7 -2 4 14 46 36 94
22 48 37 92 33 98 -3 7 -2 9 2 4 5 -4 14 7 19 25 13 38 7 46 -70 98 -27 19
-51 36 -54 39 -3 3 -24 19 -47 35 -38 25 -48 46 -23 46 5 0 35 16 68 35 57 33
62 34 143 30 46 -2 84 -4 84 -5 0 0 47 -3 105 -6 58 -2 132 -7 165 -9 33 -3
105 -7 160 -10 55 -3 106 -8 113 -10 6 -2 12 0 12 5 0 6 -6 10 -12 11 -7 0
-22 2 -33 4 -11 2 -42 6 -70 11 -27 4 -54 8 -60 10 -5 1 -28 5 -50 8 -23 4
-52 8 -65 11 -24 5 -88 15 -125 20 -21 3 -41 7 -133 25 -29 5 -56 9 -60 9 -4
-1 -10 0 -14 1 -19 6 -30 8 -60 9 -49 2 -32 12 117 66 17 7 15 9 -15 16 -19 5
-56 11 -81 13 -25 3 -63 7 -85 10 -133 20 -339 44 -345 40 -4 -2 -10 0 -14 6
-5 9 45 74 224 290 146 177 204 250 200 254 -2 2 -80 31 -174 65 -93 34 -188
69 -210 78 -22 8 -69 25 -105 37 l-65 23 -105 -23z m640 -1222 c0 -4 -28 -16
-62 -27 -53 -16 -128 -55 -148 -75 -3 -3 -24 -17 -47 -32 -34 -23 -85 -39
-193 -63 -8 -2 -51 -12 -95 -24 -43 -11 -81 -19 -82 -17 -2 1 11 21 27 43 l30
41 -33 12 c-74 30 -73 31 53 65 8 2 61 17 118 33 62 18 119 28 143 26 137 -12
194 -7 287 25 1 1 2 -2 2 -7z m-1120 -237 c47 -3 109 -6 138 -8 28 -1 52 -4
52 -7 0 -4 -30 -26 -67 -50 -38 -24 -77 -49 -88 -57 -92 -63 -126 -83 -147
-88 -24 -6 -24 -5 -20 52 3 52 0 62 -27 100 -17 24 -31 45 -31 48 0 11 45 22
75 19 16 -2 68 -6 115 -9z m-192 -62 c28 -21 52 -42 52 -46 0 -8 -17 -49 -41
-102 -7 -14 -29 -25 -74 -35 l-64 -16 6 26 c3 14 10 33 15 43 15 29 3 31 -44
9 -24 -11 -83 -37 -133 -57 -49 -20 -105 -44 -123 -52 -31 -15 -46 -15 -165 1
-15 2 -30 6 -33 8 -3 3 16 23 42 44 26 22 53 45 60 52 8 7 33 15 56 17 24 2
43 4 43 5 0 1 20 3 44 6 25 2 56 6 70 9 14 3 53 8 86 11 51 6 83 10 92 13 2 1
-14 16 -34 35 l-38 34 50 15 c71 22 75 21 133 -20z m-838 -174 c54 -13 66 -15
154 -32 l69 -13 -109 -97 -109 -97 -97 2 c-54 1 -98 5 -98 8 0 4 9 19 21 33
28 36 21 58 -25 83 l-40 21 25 16 c68 43 145 87 154 87 6 0 30 -5 55 -11z"/>
<path d="M5835 6524 c-22 -9 -51 -17 -65 -20 -72 -13 -81 -16 -76 -30 3 -7 -2
-18 -11 -23 -16 -9 -19 -16 -30 -81 -7 -45 -21 -80 -30 -79 -31 5 -27 -8 19
-51 29 -27 55 -50 58 -50 3 0 27 45 53 100 45 96 49 100 70 89 25 -14 109 -70
117 -78 3 -3 15 -12 28 -19 20 -11 27 -11 46 2 13 8 23 20 24 28 0 7 7 35 16
62 17 51 18 49 -27 31 -6 -3 -36 21 -65 54 -39 44 -58 58 -73 54 -15 -4 -18
-2 -13 11 3 9 5 16 3 15 -2 0 -22 -7 -44 -15z"/>
<path d="M5418 6474 c-3 -3 24 -34 60 -70 l67 -64 9 27 c5 16 17 42 27 60 10
18 15 34 11 36 -4 2 -32 5 -63 6 -31 1 -68 4 -81 6 -14 3 -27 2 -30 -1z"/>
<path d="M5375 6349 c2 -46 4 -88 5 -93 0 -4 8 -5 18 -1 9 4 22 8 27 9 6 1 16
5 23 10 8 4 24 11 38 15 23 6 21 9 -46 75 l-69 69 4 -84z"/>
<path d="M6316 6403 c-5 -12 -10 -13 -18 -5 -8 8 -28 4 -75 -13 -64 -23 -65
-23 -81 -4 -19 22 -30 25 -29 7 1 -7 -5 -39 -13 -71 -16 -68 -9 -78 49 -71 75
9 141 10 134 4 -4 -4 -41 -17 -80 -29 -40 -12 -73 -26 -73 -31 0 -5 8 -25 17
-45 14 -30 15 -38 4 -45 -23 -14 -40 0 -47 36 -8 42 -23 53 -40 30 -18 -26
-28 -96 -15 -109 6 -6 11 -19 11 -29 0 -10 6 -18 14 -18 8 0 33 -8 56 -19 34
-15 48 -17 76 -8 24 7 31 14 24 22 -5 7 -7 14 -4 18 5 5 -37 33 -43 29 -13 -9
-24 2 -21 21 2 13 9 21 18 19 71 -16 65 -20 91 62 13 42 27 76 31 76 3 0 4
-19 2 -42 -14 -148 -15 -139 19 -153 25 -11 37 -10 69 1 41 14 40 14 66 14 14
0 14 3 -5 18 l-23 17 24 75 24 75 -26 14 c-26 14 -26 14 -5 22 20 7 16 13 -47
78 -38 39 -71 71 -73 71 -3 0 -8 -8 -11 -17z"/>
<path d="M8876 6392 c-3 -5 -23 -15 -46 -22 -23 -7 -43 -17 -45 -21 -4 -5 203
-88 250 -101 6 -1 30 1 54 5 l44 8 -69 40 c-99 58 -172 99 -178 99 -3 0 -7 -4
-10 -8z"/>
<path d="M5796 6347 c-3 -18 -6 -35 -7 -39 0 -4 -7 -31 -14 -60 -8 -29 -12
-54 -10 -57 3 -2 23 -5 46 -7 52 -3 69 -18 47 -40 -13 -13 -21 -14 -57 -3 -22
7 -44 9 -47 6 -4 -3 6 -22 22 -40 41 -49 95 -54 145 -15 38 29 49 34 49 20 0
-21 -53 -61 -89 -67 l-39 -6 45 -42 c43 -40 57 -47 58 -29 2 18 29 119 37 135
6 11 5 17 -3 17 -8 0 -7 6 3 18 8 9 18 29 21 43 6 24 4 26 -18 21 -14 -2 -31
-12 -38 -21 -17 -24 -33 -32 -51 -25 -25 10 -19 33 14 52 33 19 36 27 17 46
-7 8 -33 36 -56 64 -56 65 -67 69 -75 29z"/>
<path d="M6015 6259 c-4 -6 -5 -12 -2 -15 2 -3 7 2 10 11 7 17 1 20 -8 4z"/>
<path d="M8530 6261 c-8 -6 -17 -8 -21 -5 -4 2 -10 1 -12 -3 -3 -5 48 -34 112
-65 l116 -58 -75 70 c-74 69 -92 78 -120 61z"/>
<path d="M7347 6249 c7 -7 15 -10 18 -7 3 3 -2 9 -12 12 -14 6 -15 5 -6 -5z"/>
<path d="M5540 6226 c0 -29 -4 -31 -117 -52 -21 -4 -33 -12 -33 -22 0 -12 -3
-13 -12 -4 -17 17 -28 15 -28 -6 0 -15 -12 -66 -36 -150 -4 -14 -2 -22 4 -20
12 4 14 -6 5 -28 -5 -12 11 -33 55 -74 47 -43 59 -59 50 -68 -21 -21 -1 -25
54 -11 29 7 56 12 60 11 4 -1 12 7 18 18 6 11 7 20 2 20 -5 0 -15 12 -23 28
-8 15 -17 29 -20 32 -6 6 -62 88 -74 110 -8 15 11 -1 90 -74 57 -54 72 -60 80
-36 3 11 18 29 33 41 17 14 23 23 15 26 -7 3 -13 20 -13 38 0 38 -9 67 -19 61
-3 -2 -27 -8 -51 -11 -49 -8 -70 -12 -115 -21 -19 -3 -7 5 30 22 128 60 140
68 137 94 -2 24 -67 100 -84 100 -4 0 -8 -11 -8 -24z"/>
<path d="M6547 6193 c-2 -5 -5 -26 -6 -48 -1 -22 -4 -48 -7 -57 -4 -15 2 -15
73 4 43 11 82 24 87 29 5 4 -18 20 -50 35 -32 14 -67 30 -76 35 -9 5 -19 6
-21 2z"/>
<path d="M5683 6081 c-6 -10 -8 -22 -4 -27 12 -14 31 -74 23 -74 -16 0 -33
-42 -23 -54 8 -9 1 -22 -24 -46 -52 -50 -47 -56 28 -35 15 4 27 11 27 15 0 5
11 21 24 37 20 23 23 36 20 78 -6 75 -8 82 -29 105 -22 25 -27 25 -42 1z"/>
<path d="M6612 6036 c-66 -17 -71 -20 -57 -35 8 -9 25 -29 37 -44 l21 -29 31
49 c17 26 35 51 40 54 4 4 7 11 5 16 -2 4 -37 0 -77 -11z"/>
<path d="M5775 5995 c10 -35 11 -51 3 -56 -6 -4 -8 -14 -5 -23 4 -9 -2 -21
-15 -30 -12 -9 -20 -17 -17 -20 5 -5 136 28 145 37 4 4 -23 37 -60 74 l-66 67
15 -49z"/>
<path d="M6007 5983 c-7 -26 -13 -49 -12 -51 1 -1 32 5 69 15 44 10 63 19 54
24 -7 5 -21 9 -30 9 -9 0 -21 6 -25 13 -4 6 -16 18 -25 25 -15 12 -18 8 -31
-35z"/>
<path d="M6298 6013 c7 -3 16 -2 19 1 4 3 -2 6 -13 5 -11 0 -14 -3 -6 -6z"/>
<path d="M6445 5989 c-16 -5 -41 -11 -55 -14 -23 -4 -60 -38 -60 -54 0 -4 22
-40 49 -79 28 -40 47 -72 43 -72 -4 0 -25 17 -47 38 -73 68 -70 68 -103 30
-28 -31 -29 -34 -16 -60 9 -17 10 -29 4 -33 -19 -12 1 -25 33 -21 60 8 112 19
130 28 9 5 17 6 17 3 0 -5 -127 -68 -140 -70 -44 -5 -39 -61 10 -113 45 -48
50 -50 50 -23 0 20 9 25 70 36 68 13 72 15 66 41 -7 28 -4 29 29 8 20 -13 25
-14 26 -3 5 54 11 85 29 131 26 68 26 68 -11 68 -27 0 -30 2 -18 16 11 13 5
22 -36 59 -46 40 -48 45 -37 69 13 28 11 29 -33 15z"/>
<path d="M6210 5928 c-21 -6 -48 -24 -66 -46 -27 -31 -31 -42 -27 -77 9 -65
63 -113 110 -96 1 1 -4 18 -11 39 -13 35 -12 40 5 50 16 10 17 16 8 33 -9 18
-6 26 17 50 15 16 23 29 17 29 -7 0 -13 6 -15 13 -2 10 -11 11 -38 5z"/>
<path d="M8120 5920 c-30 -10 -102 -33 -160 -51 -58 -17 -118 -37 -135 -44
-16 -7 -100 -41 -185 -75 -146 -59 -180 -72 -257 -105 -37 -16 -31 -21 -125
122 -55 84 -32 84 -208 0 -63 -30 -140 -65 -170 -77 -30 -13 -56 -25 -58 -26
-5 -3 71 -108 80 -112 5 -2 8 -8 8 -13 0 -6 5 -15 10 -22 6 -7 41 -55 78 -107
52 -72 73 -94 88 -92 10 2 21 7 24 10 11 15 173 90 183 86 13 -6 97 -109 97
-118 0 -6 31 -45 58 -72 6 -7 12 -17 12 -22 0 -6 4 -12 9 -14 5 -1 43 -48 86
-103 43 -55 101 -125 130 -155 29 -30 76 -82 106 -116 79 -89 95 -94 44 -14
-25 39 -45 72 -45 75 0 3 -20 36 -45 75 -25 39 -45 72 -45 75 0 2 -16 29 -35
59 -19 30 -35 60 -35 66 0 5 -4 10 -10 10 -5 0 -10 4 -10 9 0 4 -31 60 -70
124 -38 63 -70 118 -70 122 0 5 39 2 125 -9 17 -2 53 -7 80 -11 28 -3 61 -8
75 -10 14 -3 51 -7 82 -10 31 -4 71 -10 88 -15 18 -5 30 -5 30 1 0 5 -6 9 -14
9 -12 0 -194 71 -271 105 -16 8 -59 26 -95 40 -36 15 -66 28 -68 30 -2 2 255
148 438 249 276 151 297 165 180 126z"/>
<path d="M6118 5905 c-3 -3 -15 -8 -27 -10 -11 -3 -31 -7 -43 -10 -36 -8 -35
-18 4 -57 27 -27 37 -33 37 -20 1 39 8 62 26 82 15 17 18 30 3 15z"/>
<path d="M5212 5785 c-29 -41 -52 -77 -52 -79 0 -2 28 4 63 15 34 11 75 22 92
25 16 3 31 7 33 9 6 6 -67 105 -78 105 -3 0 -29 -34 -58 -75z"/>
<path d="M5880 5840 c-8 -4 -39 -13 -68 -20 -51 -12 -60 -19 -30 -24 28 -4 67
-51 70 -83 3 -45 13 -30 37 54 20 73 18 88 -9 73z"/>
<path d="M5956 5779 c-19 -64 -20 -73 -3 -62 6 4 17 8 22 8 6 1 17 5 27 9 14
6 78 -17 78 -29 0 -2 -21 -2 -47 0 -38 3 -53 -1 -79 -20 -40 -31 -61 -100 -37
-123 14 -15 18 -13 44 20 21 26 35 35 49 31 30 -8 25 -24 -20 -63 l-40 -35 55
-58 c30 -32 55 -60 55 -63 0 -2 -34 18 -75 46 -84 58 -107 57 -121 -2 -4 -18
-9 -36 -10 -40 -1 -5 -2 -9 -4 -10 -4 -7 -8 -38 -3 -38 2 0 13 5 23 10 16 8
25 3 57 -35 35 -42 63 -58 63 -35 0 6 5 10 10 10 6 0 8 -10 4 -24 -7 -30 3
-50 19 -39 17 12 105 40 150 48 38 6 38 6 23 30 -21 32 -20 33 8 28 29 -6 41
13 51 80 4 26 12 48 19 48 6 1 16 2 21 4 6 1 14 3 20 3 11 2 -69 79 -95 91
-40 20 -54 7 -102 -89 -26 -52 -47 -91 -48 -87 0 4 7 40 15 80 9 40 18 83 21
95 3 16 1 21 -6 17 -13 -8 -60 2 -60 13 0 5 6 16 13 26 12 16 17 17 37 6 14
-7 25 -8 29 -3 3 6 12 12 19 14 8 3 -21 41 -77 98 l-90 93 -15 -53z"/>
<path d="M5688 5786 c-37 -9 -56 -32 -41 -47 4 -4 24 -10 44 -12 45 -5 60 -14
57 -35 -2 -10 6 -18 21 -22 16 -3 28 -16 34 -35 18 -56 31 -62 43 -20 9 34 7
44 -12 81 -12 23 -20 45 -17 48 3 2 -17 15 -43 28 -41 19 -55 22 -86 14z"/>
<path d="M5480 5731 l-55 -17 24 -16 23 -16 -20 -62 c-17 -54 -18 -62 -4 -67
12 -5 11 -8 -6 -14 -29 -11 -28 -33 2 -52 27 -18 42 -33 80 -78 26 -30 29 -32
41 -16 15 21 25 22 25 3 0 -33 25 -36 92 -12 63 23 65 23 76 5 18 -28 29 -23
35 14 7 44 17 89 23 98 2 4 -2 14 -10 22 -15 14 -36 15 -168 3 -64 -6 -61 7 5
23 85 22 128 44 121 61 -4 8 -9 24 -11 35 -4 17 -56 43 -117 58 -5 1 -20 -33
-35 -75 -25 -75 -44 -111 -36 -70 9 48 15 182 8 183 -5 0 -15 2 -23 4 -8 1
-40 -5 -70 -14z"/>
<path d="M5366 5703 c-4 -5 -11 -8 -14 -9 -26 -2 -122 -28 -122 -33 0 -3 30
-20 65 -36 l65 -31 0 34 c0 18 5 42 11 54 11 20 8 34 -5 21z"/>
<path d="M6235 5650 c3 -5 8 -10 11 -10 2 0 4 5 4 10 0 6 -5 10 -11 10 -5 0
-7 -4 -4 -10z"/>
<path d="M3180 5633 c14 -9 27 -20 30 -24 3 -3 27 -25 53 -48 48 -41 63 -44
111 -25 15 6 -3 18 -85 60 -102 52 -159 71 -109 37z"/>
<path d="M6180 5599 c0 -5 5 -7 10 -4 6 3 10 8 10 11 0 2 -4 4 -10 4 -5 0 -10
-5 -10 -11z"/>
<path d="M2829 5545 c-3 -2 -19 -5 -37 -7 -18 -1 -32 -5 -32 -9 0 -4 30 -24
68 -45 37 -21 86 -50 110 -65 l43 -27 52 21 c84 33 95 23 -117 106 -88 35 -81
33 -87 26z"/>
<path d="M6460 5498 c-25 -12 -46 -22 -48 -23 -1 -1 20 -25 48 -53 27 -28 50
-47 51 -44 1 4 0 25 -1 47 -2 22 -3 52 -3 68 0 15 -1 27 -1 27 -1 -1 -21 -11
-46 -22z"/>
<path d="M6354 5432 c2 -4 -4 -27 -15 -51 -11 -24 -18 -46 -16 -47 2 -2 38 -6
81 -8 l78 -4 -59 59 c-50 51 -85 76 -69 51z"/>
<path d="M1560 5323 c-23 -20 -37 -39 -33 -44 9 -8 164 -97 263 -150 36 -20
85 -41 110 -48 25 -8 52 -16 60 -18 8 -3 -30 -23 -85 -44 -100 -39 -120 -41
-210 -23 -11 3 -38 7 -60 10 -22 3 -62 9 -90 14 -27 5 -68 12 -90 15 -22 3
-51 7 -65 10 -21 3 -125 19 -205 31 -103 15 -112 15 -170 -6 -33 -12 -81 -29
-107 -38 -62 -20 -62 -34 0 -24 59 9 136 8 232 -2 41 -5 91 -10 110 -12 19 -2
51 -5 70 -7 19 -3 67 -8 105 -12 39 -4 79 -9 90 -11 35 -7 178 -17 245 -18 59
-1 75 4 188 59 67 32 122 62 122 66 0 4 -29 17 -64 29 -36 11 -89 41 -122 66
-66 50 -60 46 -166 132 -43 34 -80 62 -83 62 -3 0 -23 -16 -45 -37z"/>
<path d="M5758 5305 c-3 -3 -29 -8 -59 -11 -30 -3 -55 -7 -57 -9 -2 -2 14 -38
36 -81 21 -42 42 -73 45 -67 3 5 11 30 17 54 10 43 12 50 26 97 6 21 3 28 -8
17z"/>
<path d="M10470 5288 c-19 -11 -50 -29 -67 -39 -18 -11 -50 -29 -70 -40 -21
-12 -67 -38 -102 -58 -35 -20 -83 -47 -107 -61 -23 -14 -117 -68 -208 -120
l-165 -95 21 -35 c53 -88 149 -254 183 -315 50 -91 208 -361 222 -380 l15 -20
-7 20 c-4 11 -23 61 -42 110 -19 50 -36 95 -37 100 -2 6 -6 17 -9 25 -3 8 -29
78 -57 155 -28 77 -64 173 -79 213 -16 39 -27 72 -24 72 2 0 33 -29 70 -65 36
-36 69 -65 72 -66 18 -3 111 -12 241 -24 148 -14 179 -16 225 -20 28 -1 63 -6
79 -10 21 -6 27 -5 22 4 -4 6 -13 11 -21 11 -8 0 -60 22 -117 49 -121 58 -240
113 -323 151 l-60 27 -65 -18 c-36 -10 -78 -21 -95 -24 -25 -4 -28 -3 -14 8 9
6 38 31 65 53 64 54 191 159 384 319 58 48 107 89 109 91 11 10 -7 2 -39 -18z"/>
<path d="M5820 5273 c0 -10 -5 -24 -12 -31 -7 -7 -9 -12 -6 -12 3 0 2 -16 -2
-35 -9 -41 -3 -43 36 -13 49 38 68 58 57 58 -6 0 -25 12 -42 26 -28 23 -31 24
-31 7z"/>
<path d="M5216 5253 c-1 -2 -32 -5 -69 -8 -104 -8 -200 -16 -222 -20 -11 -1
-24 -3 -30 -4 -5 0 -11 -31 -12 -69 -4 -143 -5 -159 -12 -170 -6 -11 -71 -23
-196 -37 -22 -3 -51 -7 -65 -10 -14 -3 -50 -8 -80 -11 -30 -3 -62 -7 -70 -8
-8 -2 -42 -7 -75 -11 -63 -9 -73 -11 -77 -15 -3 -2 -17 -5 -78 -18 -25 -6 -79
-17 -120 -27 -41 -9 -83 -18 -94 -20 -10 -3 -21 -6 -23 -9 -4 -4 446 1 685 8
76 2 102 -1 98 -9 -7 -19 -192 -263 -250 -331 -43 -49 -48 -69 -8 -32 24 23
125 103 208 163 15 11 32 25 38 30 6 6 34 27 63 48 l52 38 -3 -258 c-8 -482
-8 -534 -3 -539 2 -3 8 17 12 43 5 26 9 53 11 58 15 58 56 248 60 274 2 19 6
46 9 60 2 14 7 46 10 71 3 25 8 56 10 70 2 14 7 52 11 85 3 33 8 62 9 65 4 7
18 110 18 138 1 12 3 22 7 22 3 1 50 3 105 6 111 5 132 8 140 16 3 3 8 36 10
74 3 38 8 92 11 119 2 28 7 75 9 105 3 30 7 70 10 88 l5 33 -51 -3 c-28 -2
-52 -4 -53 -5z"/>
<path d="M8049 5223 c-1 -5 0 -12 1 -18 1 -5 4 -26 5 -45 2 -19 4 -35 5 -35 1
0 3 -9 5 -20 11 -73 18 -113 21 -130 2 -11 6 -36 8 -55 3 -19 8 -48 12 -63 3
-16 7 -38 9 -50 12 -95 17 -124 21 -138 3 -9 7 -34 9 -55 3 -20 8 -51 10 -68
4 -26 3 -29 -7 -15 -7 8 -58 34 -113 56 -55 23 -118 49 -140 59 -22 10 -42 18
-45 19 -10 1 -186 76 -214 90 -16 9 -31 13 -34 11 -2 -3 21 -37 52 -76 l57
-70 -48 19 c-26 10 -142 53 -258 96 -115 42 -219 80 -230 85 -80 32 -180 69
-182 66 -2 -1 150 -78 336 -171 264 -131 342 -174 352 -194 8 -14 26 -46 42
-69 16 -24 25 -47 21 -52 -5 -4 -45 -11 -89 -15 -128 -10 -139 -12 -164 -20
-16 -5 -21 -12 -18 -26 3 -10 1 -16 -4 -13 -5 3 -9 -7 -8 -23 0 -15 -2 -55 -6
-88 -8 -59 -12 -98 -14 -122 -1 -12 -106 43 -142 74 -9 8 -88 158 -175 334
-87 175 -162 319 -166 319 -4 0 2 -21 13 -47 32 -75 34 -82 74 -193 21 -58 43
-116 48 -130 6 -14 11 -28 12 -32 2 -5 4 -10 5 -13 1 -3 3 -8 5 -12 1 -5 5
-15 8 -23 12 -30 87 -233 87 -237 0 -2 -32 22 -72 53 -48 39 -69 51 -65 38 3
-10 38 -95 77 -189 40 -93 77 -181 83 -195 6 -14 11 -27 12 -30 1 -3 8 -21 17
-41 23 -53 31 -82 21 -76 -5 3 -31 8 -57 12 -27 3 -51 7 -55 9 -4 3 -34 7 -66
11 -33 3 -67 8 -76 11 -9 3 -32 7 -50 9 -19 3 -45 7 -59 10 -14 3 -43 7 -65
10 -22 3 -51 8 -65 11 -14 3 -43 7 -65 10 -22 2 -55 8 -72 13 -18 5 -35 6 -38
1 -3 -4 -1 -32 5 -61 5 -30 11 -70 14 -89 3 -19 14 -84 25 -145 11 -60 22
-123 25 -140 30 -180 22 -161 115 -270 47 -55 91 -105 96 -111 29 -33 114
-132 201 -234 53 -63 101 -117 106 -118 4 -2 8 5 9 15 0 10 2 27 4 38 2 11 7
45 11 75 8 69 10 90 20 165 11 85 8 137 -10 185 -3 8 -7 31 -10 51 -3 20 -8
43 -12 52 -9 25 0 21 38 -15 51 -49 247 -230 272 -251 11 -10 45 -41 74 -69
43 -41 55 -49 63 -37 7 11 9 9 9 -7 0 -14 34 -52 97 -110 93 -85 147 -136 278
-257 33 -30 61 -54 63 -53 1 2 -27 75 -62 162 -121 299 -116 277 -49 228 17
-13 34 -24 38 -24 3 0 15 -9 27 -20 35 -33 41 -23 11 18 -37 49 -229 293 -246
312 -8 8 -47 58 -88 110 -40 52 -76 97 -79 100 -3 3 -19 23 -35 45 -17 22 -32
42 -35 45 -3 3 -21 25 -40 50 -19 25 -37 47 -40 50 -3 3 -29 35 -59 73 -39 49
-62 93 -88 165 -19 53 -36 102 -38 107 -1 6 -5 17 -8 25 -3 8 -22 64 -42 124
-20 59 -39 116 -42 125 -4 10 4 7 23 -10 30 -27 229 -179 252 -193 10 -6 12 2
7 36 -5 41 -7 65 -20 188 -3 30 -8 63 -9 72 -3 14 0 16 12 9 55 -30 95 -85
178 -246 48 -93 90 -174 94 -180 4 -5 29 -53 55 -105 32 -63 67 -115 104 -152
30 -32 58 -58 62 -58 4 0 5 19 3 43 -2 23 -6 82 -8 130 -3 49 -9 94 -12 100
-4 7 27 -22 67 -63 41 -42 88 -87 106 -100 27 -22 38 -46 84 -190 34 -109 60
-174 76 -191 l25 -27 -27 -58 c-14 -33 -32 -72 -40 -89 -8 -16 -12 -31 -10
-34 5 -4 93 62 133 99 23 21 24 22 45 3 12 -10 24 -20 27 -23 3 -3 28 -23 55
-45 28 -21 53 -44 57 -49 11 -16 18 14 15 57 -2 20 -2 37 1 37 2 0 45 -27 96
-61 72 -47 99 -72 126 -115 22 -34 47 -60 66 -68 17 -8 31 -20 31 -27 0 -8 4
-41 8 -74 4 -33 7 -66 8 -73 0 -7 62 -56 138 -108 76 -52 141 -99 144 -104 3
-6 13 -10 20 -10 11 0 12 6 5 26 -6 14 -10 32 -10 40 0 13 2 13 14 2 7 -7 60
-56 116 -108 57 -52 118 -108 134 -123 17 -16 71 -66 121 -110 133 -122 165
-156 165 -177 0 -10 4 -21 9 -24 4 -3 11 -19 14 -36 6 -27 10 -30 47 -30 22 0
40 4 40 9 0 28 -55 88 -498 539 l-193 197 3 -42 c1 -23 0 -44 -3 -47 -2 -3
-42 16 -88 42 l-84 47 -34 100 c-19 55 -36 107 -38 115 -2 8 -7 25 -11 37 -6
22 0 21 131 -25 l138 -47 43 -75 c24 -41 43 -80 43 -86 1 -7 -16 -11 -46 -9
l-46 2 169 -165 c93 -90 246 -239 340 -331 95 -91 186 -174 202 -184 l31 -18
7 37 c8 42 4 46 -71 70 -31 11 -63 31 -85 54 -29 31 -119 129 -235 256 -12 12
-59 64 -105 115 -47 51 -93 100 -102 108 -10 9 -18 19 -18 24 0 5 8 6 18 2 68
-27 66 -19 -27 117 -123 179 -124 180 -157 183 -16 2 -53 6 -82 9 -63 6 -72
11 -72 36 0 10 -13 27 -30 37 -16 9 -30 21 -30 25 0 4 -6 8 -12 8 -24 1 -56
37 -112 123 -31 48 -56 89 -56 92 0 3 22 4 50 2 33 -2 47 0 41 7 -4 6 -36 46
-70 89 -69 85 -68 84 -14 142 56 60 80 105 46 85 -25 -14 -152 -70 -159 -70
-4 0 -15 11 -25 24 -17 21 -72 46 -135 61 -10 2 -66 21 -124 40 -79 27 -110
43 -124 63 -11 15 -53 60 -95 100 l-76 74 45 -6 c25 -3 80 -8 123 -11 43 -2
82 -7 86 -9 4 -3 12 -1 19 3 22 13 -97 115 -198 169 -52 27 -168 88 -258 136
-89 47 -166 86 -170 86 -12 0 -82 61 -82 71 0 6 -7 17 -15 25 -16 16 -21 39
-6 30 9 -6 56 -13 146 -22 33 -3 83 -9 112 -13 37 -6 50 -5 46 3 -4 6 -50 67
-103 136 -53 69 -99 130 -103 137 -4 6 21 1 55 -13 34 -13 65 -24 69 -24 4 0
20 -5 36 -12 15 -6 46 -17 68 -23 58 -18 167 -56 187 -66 10 -5 23 -9 30 -9 7
0 45 -25 83 -56 39 -30 85 -67 104 -82 19 -15 53 -42 75 -60 52 -42 62 -50
111 -87 22 -16 45 -34 51 -40 6 -5 26 -22 45 -37 160 -126 345 -273 349 -277
3 -3 34 -28 70 -56 36 -27 68 -54 72 -60 4 -5 8 -7 8 -3 0 4 -31 56 -69 115
-38 60 -67 110 -66 112 3 3 144 -53 250 -99 22 -9 56 -23 75 -30 19 -7 39 -17
45 -22 5 -4 15 -8 23 -8 7 0 -6 21 -30 46 -24 26 -59 63 -78 84 -19 20 -73 79
-120 130 -109 119 -122 131 -136 126 -6 -2 -17 0 -25 5 -11 7 -11 9 4 9 25 0
22 8 -25 59 -154 167 -261 283 -315 340 -34 36 -61 67 -60 68 2 1 20 -2 42 -7
22 -5 51 -11 65 -14 14 -2 59 -11 100 -20 41 -9 86 -14 100 -12 24 4 110 15
180 22 19 2 44 6 55 8 11 3 31 5 45 6 l25 1 -30 25 c-16 15 -44 38 -60 53 -17
14 -93 80 -170 146 -77 66 -145 124 -151 130 -6 5 -32 28 -59 50 -26 22 -66
57 -88 77 -36 33 -73 47 -132 53 -11 1 -40 6 -65 11 -25 4 -49 9 -55 10 -5 0
-28 4 -50 9 -81 16 -73 15 -180 29 -16 2 -42 7 -57 10 -70 15 -78 16 -79 9z
m-465 -959 c22 -20 77 -54 122 -76 84 -40 93 -47 248 -206 l88 -92 -50 6 c-27
3 -52 2 -55 -3 -3 -4 -2 -27 3 -51 4 -23 5 -42 3 -42 -4 0 -154 143 -226 215
-16 17 -47 66 -67 110 -35 72 -89 147 -145 198 -16 15 -14 14 10 -2 17 -11 48
-36 69 -57z m764 -696 c81 -39 159 -83 174 -97 l28 -26 -58 -27 -57 -28 74 5
75 6 38 -38 c35 -34 48 -56 31 -51 -5 1 -28 -1 -52 -5 l-44 -8 46 -32 c25 -18
95 -70 156 -116 102 -79 111 -88 129 -140 39 -110 44 -103 -47 -69 -51 19 -86
39 -96 54 -31 48 -208 275 -211 271 -5 -5 -12 -48 -13 -77 -1 -23 -3 -22 -45
19 -31 30 -43 50 -40 64 13 68 14 97 4 97 -5 0 -12 0 -15 0 -3 0 -5 -2 -5 -5
0 -7 -30 -65 -34 -65 -1 0 -12 8 -23 18 -20 17 -178 322 -167 322 3 0 71 -32
152 -72z"/>
<path d="M8763 5168 c-2 -5 -1 -8 4 -7 4 1 10 0 13 -1 3 -1 12 -3 20 -5 8 -2
69 -25 135 -50 102 -38 113 -44 70 -39 -27 4 -59 9 -70 11 -11 2 -36 7 -55 10
-19 2 -68 11 -109 19 -41 7 -76 13 -77 11 -4 -4 136 -87 147 -87 5 0 9 -4 9
-10 0 -5 4 -10 9 -10 6 0 92 -48 193 -106 101 -59 203 -118 228 -132 25 -14
74 -42 109 -64 34 -21 65 -38 67 -38 3 0 131 -73 174 -99 73 -45 240 -138 240
-135 0 3 -13 25 -30 49 -16 24 -30 46 -30 48 0 3 -48 85 -106 183 -59 99 -108
184 -111 190 -4 11 17 24 140 93 20 12 54 31 75 43 20 12 51 28 67 36 17 9 32
18 35 22 3 3 21 14 40 23 19 9 47 25 63 35 27 18 14 18 -609 18 -349 0 -638
-4 -641 -8z"/>
<path d="M6161 4977 c-73 -161 -145 -314 -153 -324 -7 -9 19 -31 94 -79 56
-37 105 -69 107 -71 4 -3 -19 -66 -55 -148 -85 -198 -153 -382 -200 -540 -19
-66 -39 -128 -44 -137 -6 -10 -10 -21 -10 -25 0 -13 18 11 43 57 149 275 350
630 356 630 4 0 13 -17 20 -37 7 -21 21 -56 31 -78 16 -35 36 -83 109 -260 9
-21 16 -42 16 -46 0 -4 4 -11 9 -16 5 -5 6 5 1 22 -12 49 -15 67 -20 120 -5
51 -14 121 -21 165 -2 14 -7 49 -10 79 -3 30 -7 63 -9 73 -2 10 -2 18 0 18 3
0 130 -75 282 -166 325 -195 321 -192 367 -221 20 -12 36 -18 36 -13 0 4 -4
10 -9 12 -5 2 -63 54 -129 116 -65 61 -141 129 -168 149 -27 21 -54 42 -60 48
-6 5 -79 62 -162 125 -83 63 -151 121 -151 127 -1 7 22 60 51 117 29 58 50
107 48 109 -3 2 -68 48 -145 102 -77 54 -154 109 -170 121 l-31 23 -23 -52z"/>
<path d="M926 4962 c-4 -7 -4 -12 1 -12 8 0 17 -7 121 -97 l54 -46 -29 -12
c-15 -7 -93 -38 -173 -69 -80 -30 -158 -61 -175 -67 -16 -7 -32 -13 -35 -13
-27 -6 -119 -50 -115 -56 3 -4 19 -10 37 -12 33 -5 75 8 383 121 77 29 147 54
155 56 74 21 143 55 111 55 -7 0 -77 32 -157 70 -79 39 -148 70 -153 70 -5 0
-11 5 -13 12 -3 9 -6 9 -12 0z"/>
<path d="M3509 4917 c-33 -9 -37 -14 -63 -96 -15 -47 -30 -93 -33 -101 -3 -8
17 17 43 55 78 112 105 155 97 154 -5 -1 -24 -6 -44 -12z"/>
<path d="M3177 4860 c-27 -5 -50 -10 -51 -12 -16 -20 -126 -221 -123 -224 7
-7 72 19 87 35 9 9 44 52 79 96 36 44 71 88 79 98 17 20 11 20 -71 7z"/>
<path d="M6945 4840 c3 -5 8 -10 11 -10 2 0 4 5 4 10 0 6 -5 10 -11 10 -5 0
-7 -4 -4 -10z"/>
<path d="M2128 4665 c-3 -4 -44 -7 -238 -17 -23 -2 -178 -100 -255 -161 -115
-91 -434 -316 -475 -333 -30 -14 -68 -31 -85 -39 l-30 -15 40 6 c22 4 47 8 55
9 8 1 29 5 45 8 17 4 47 9 68 11 21 3 44 9 50 14 10 7 239 190 287 229 317
256 279 234 418 249 18 1 42 6 53 9 28 9 24 1 -23 -49 -24 -25 -83 -114 -133
-198 -49 -84 -93 -156 -98 -159 -11 -8 5 -19 41 -26 74 -16 67 -24 147 176 40
101 77 187 82 190 4 4 25 25 46 47 29 32 35 43 24 47 -8 3 -17 4 -19 2z"/>
<path d="M1308 4505 c-3 -3 -21 -7 -39 -9 -19 -2 -48 -6 -64 -10 -58 -12 -180
-34 -231 -41 -11 -2 -45 -8 -75 -14 -79 -16 -92 -19 -146 -26 -50 -7 -127 -51
-117 -66 3 -5 8 -8 12 -5 4 2 30 6 57 10 28 3 59 8 70 10 11 2 40 7 65 10 25
3 56 8 70 11 14 2 42 7 64 9 21 3 46 8 55 10 9 3 41 8 71 11 30 4 65 8 78 9
26 4 27 -3 8 -49 -8 -19 -13 -35 -11 -35 2 0 -7 -28 -21 -62 -13 -34 -24 -66
-24 -72 0 -10 198 278 207 302 5 12 -18 17 -29 7z"/>
<path d="M5493 4453 c-21 -27 -40 -50 -43 -53 -3 -3 -21 -25 -40 -50 -19 -25
-37 -47 -40 -50 -3 -3 -50 -59 -105 -125 -54 -66 -120 -145 -145 -175 -26 -30
-52 -64 -59 -75 -10 -17 -11 -10 -6 40 3 33 8 75 11 93 3 17 3 32 1 32 -2 0
-40 -48 -83 -107 -43 -58 -84 -111 -89 -117 -6 -6 -22 -27 -35 -46 -13 -19
-30 -41 -37 -48 -7 -7 -31 -40 -54 -73 -23 -33 -46 -56 -51 -51 -4 4 -31 69
-59 143 -28 74 -54 143 -59 154 -5 11 -34 87 -64 169 -30 82 -59 153 -63 157
-4 4 -73 -46 -153 -112 -80 -66 -154 -128 -165 -137 -156 -130 -165 -138 -165
-149 0 -4 -54 -161 -119 -348 -66 -187 -119 -341 -117 -342 2 -2 113 42 201
81 17 7 59 25 95 40 45 19 88 48 140 96 77 72 95 83 86 53 -6 -20 -22 -95 -29
-133 -3 -14 -10 -43 -15 -65 -6 -22 -13 -51 -16 -65 -2 -14 -16 -77 -30 -140
-15 -63 -28 -125 -31 -137 -3 -15 0 -23 12 -26 16 -4 16 -5 2 -6 -9 0 -20 -9
-24 -18 -7 -20 -125 -552 -125 -567 0 -5 13 10 30 32 16 23 36 49 44 59 49 61
175 222 189 243 9 13 18 20 18 15 2 -18 -3 -138 -7 -159 -3 -21 -3 -21 11 -2
8 11 15 26 15 33 0 7 4 21 10 31 5 9 28 64 50 122 22 58 45 114 49 125 5 11
23 54 39 95 16 41 33 84 37 95 5 11 9 22 9 25 10 42 204 504 220 522 40 47
131 151 141 162 6 6 46 53 90 104 43 50 80 92 81 92 2 0 -3 -30 -6 -40 -1 -3
-2 -8 -2 -11 1 -4 -3 -33 -8 -65 -5 -33 -11 -77 -14 -99 -2 -22 -7 -64 -12
-94 l-7 -53 84 61 c46 34 105 78 132 97 l47 36 -5 -58 c-4 -37 -15 -72 -29
-94 -13 -19 -87 -136 -164 -260 -78 -124 -146 -230 -151 -236 -8 -10 -50 -166
-46 -172 1 -1 53 32 114 74 105 71 135 85 115 52 -5 -7 -9 -17 -10 -23 -1 -5
-11 -35 -22 -65 -23 -66 -22 -61 -22 -107 0 -32 -9 -48 -56 -98 -50 -54 -117
-129 -173 -194 -20 -23 -25 -36 -22 -54 1 -4 -4 -9 -11 -12 -15 -4 -120 -14
-161 -15 -24 0 -26 -2 -15 -14 8 -7 24 -17 37 -21 13 -4 47 -17 76 -30 l52
-24 -13 -78 c-8 -43 -17 -95 -19 -116 l-5 -38 45 26 45 27 -5 -89 c-7 -122
-12 -145 -41 -197 -17 -31 -25 -57 -23 -81 3 -33 -1 -38 -63 -85 -37 -28 -69
-54 -72 -58 -5 -9 -11 -63 -21 -207 -4 -44 -8 -96 -10 -115 -4 -50 2 -54 36
-19 l30 30 -7 -28 c-3 -15 -8 -37 -11 -48 -4 -11 -7 -29 -8 -40 -2 -11 -8 -40
-15 -65 -7 -25 -15 -58 -17 -74 -2 -17 -8 -48 -14 -70 -6 -23 -13 -52 -15 -66
-3 -14 -7 -33 -10 -42 -3 -9 -7 -27 -9 -40 -6 -33 -42 -191 -50 -220 -2 -5 -3
-12 -4 -17 0 -4 -19 -31 -41 -59 -46 -57 -47 -65 -21 -99 l20 -24 24 48 c13
26 30 71 37 98 17 66 40 144 51 175 5 14 11 34 13 45 2 11 10 40 17 65 7 25
14 50 15 55 1 6 19 68 39 139 20 71 39 137 41 145 2 9 15 56 29 105 14 48 24
90 22 92 -2 2 -20 -8 -40 -22 -33 -22 -37 -23 -38 -7 -6 179 -6 180 24 215 41
47 85 97 127 144 l37 41 30 -144 29 -143 -48 -77 c-27 -43 -52 -79 -56 -81 -5
-1 -14 13 -22 33 -8 19 -17 35 -21 35 -6 0 -22 -54 -34 -110 -2 -8 -29 -114
-60 -235 -52 -202 -65 -255 -81 -325 -3 -14 -12 -49 -21 -79 -8 -29 -16 -59
-17 -65 -2 -6 -6 -22 -9 -36 -11 -41 -17 -119 -9 -124 11 -6 73 25 67 33 -5 9
-18 109 -17 131 1 8 46 159 102 335 55 176 100 325 100 332 0 25 20 13 34 -19
l14 -33 10 25 c6 14 40 88 76 165 36 77 66 145 66 151 0 11 -41 110 -61 146
-6 13 -4 22 11 36 15 14 21 35 24 88 4 57 13 86 53 166 26 54 51 98 54 98 3 0
15 -19 26 -41 l21 -42 20 44 c10 24 27 69 38 99 10 30 22 60 26 66 8 11 48 10
94 -1 52 -12 94 -16 94 -7 0 4 -34 32 -75 60 -70 50 -74 54 -64 79 5 14 7 34
4 44 -3 9 -8 28 -10 41 -3 13 -9 43 -15 68 -5 25 -12 56 -14 70 -3 14 -12 56
-20 94 -14 67 -14 70 8 115 13 25 29 81 37 124 7 42 15 77 18 77 4 0 33 -57
66 -127 l61 -127 22 85 c18 70 21 102 17 189 -2 58 -7 184 -11 280 -3 96 -7
193 -8 214 -3 44 42 163 52 136 3 -8 18 -43 33 -77 16 -34 40 -91 55 -125 38
-92 38 -92 69 -8 14 38 27 68 36 84 6 10 12 26 14 35 2 9 15 41 29 72 13 31
23 60 20 63 -2 3 0 3 5 -1 5 -5 12 -24 14 -43 3 -19 6 -36 7 -37 3 -4 5 -12
14 -66 4 -27 10 -59 12 -70 3 -12 7 -33 10 -47 49 -252 47 -233 29 -346 -9
-54 -18 -117 -21 -139 -2 -22 -6 -51 -9 -65 -2 -14 -7 -45 -10 -70 -3 -25 -10
-70 -15 -100 -9 -54 -19 -124 -25 -165 -1 -11 -5 -40 -9 -65 -4 -25 -9 -56
-11 -70 -2 -14 -6 -44 -10 -68 -8 -49 -11 -70 -19 -137 -4 -27 -9 -61 -11 -75
-22 -120 -18 -120 47 7 34 67 64 120 67 117 2 -2 5 -14 7 -26 1 -13 8 -61 14
-108 7 -47 14 -96 15 -110 7 -46 18 -155 19 -172 1 -37 17 5 90 242 71 232 75
246 61 274 -15 28 -14 29 4 12 18 -17 20 -13 56 101 21 65 38 123 39 128 2 6
24 78 50 160 26 83 50 158 52 168 3 9 10 17 15 17 5 0 8 -3 7 -7 -1 -5 15 -62
36 -128 33 -104 47 -132 104 -210 37 -49 69 -92 72 -95 3 -3 19 -22 34 -43 16
-21 31 -35 34 -33 4 5 9 25 37 176 22 120 25 132 36 185 6 28 12 62 14 77 2
15 9 55 16 90 6 35 13 73 14 85 2 11 6 30 9 41 4 11 9 36 11 57 3 20 7 41 10
45 5 8 -77 242 -111 317 -8 17 -14 34 -14 37 0 8 -71 200 -76 205 -3 3 -186
-140 -204 -159 -3 -3 -25 -21 -50 -40 -25 -19 -49 -40 -55 -46 -5 -6 -44 -38
-85 -70 -74 -59 -121 -98 -146 -121 -18 -18 -20 -17 -20 15 -1 27 -12 136 -19
182 -9 58 -21 152 -30 235 -4 28 -9 64 -12 80 -3 17 -5 41 -4 55 1 24 0 23
-19 -8 -11 -18 -20 -38 -21 -45 -1 -14 -37 -94 -39 -87 -2 8 -8 42 -15 86 -9
62 -15 97 -20 120 -3 12 -7 39 -10 60 -3 21 -10 59 -15 84 -5 25 -12 68 -16
95 -4 28 -8 55 -10 60 -1 6 -5 30 -8 55 -4 25 -9 52 -11 60 -2 8 -6 37 -10 65
-11 88 -17 63 -10 -40 13 -188 14 -210 19 -305 9 -158 18 -293 21 -320 2 -23
-72 -179 -86 -180 -3 0 -32 39 -65 86 -75 108 -102 136 -129 128 -19 -6 -93
-39 -190 -84 -22 -10 -42 -16 -44 -15 -3 4 -2 111 2 155 2 24 231 381 248 388
5 2 9 8 9 13 0 5 36 63 80 129 44 66 78 120 76 120 -3 0 -22 -21 -43 -47z
m-122 -711 c-20 -41 -32 -147 -26 -236 7 -98 8 -90 -56 -315 l-33 -113 -20 43
c-11 24 -21 46 -23 47 -1 2 -22 -10 -47 -28 -25 -17 -46 -27 -46 -22 0 5 3 12
7 16 4 3 8 12 9 19 1 7 16 69 33 139 17 70 31 132 31 137 0 9 97 159 110 171
6 5 29 78 29 93 1 4 7 20 15 36 9 16 12 32 8 36 -4 5 -1 5 6 1 8 -5 9 -13 3
-24z m-245 -1032 c10 -141 11 -267 2 -275 -4 -4 -25 7 -47 24 -23 18 -45 30
-50 27 -5 -4 -12 -2 -15 2 -3 5 -28 7 -55 4 -48 -4 -50 -4 -44 19 6 21 157
258 173 269 3 3 10 14 13 24 12 31 16 15 23 -94z m-94 -235 c2 3 21 -19 41
-47 l36 -53 -18 -63 -17 -64 -37 41 -37 41 -1 -27 c0 -16 -2 -37 -4 -48 -7
-38 -16 -104 -30 -230 -1 -11 -3 -32 -4 -47 0 -15 -7 -33 -14 -40 -7 -7 -30
-34 -51 -60 -39 -49 -52 -58 -53 -35 -1 12 -9 60 -19 108 -4 24 13 82 51 164
7 17 25 59 40 95 15 36 33 77 40 92 7 15 11 29 8 32 -3 2 -25 -4 -50 -15 l-45
-19 7 27 c4 16 9 39 11 52 7 37 12 41 71 67 37 17 52 28 47 37 -6 9 -5 9 8 0
8 -7 17 -11 20 -8z"/>
<path d="M8000 4285 c33 -34 36 -34 125 -10 6 1 29 6 53 10 23 4 41 10 38 12
-3 3 -38 7 -78 9 -40 2 -95 5 -122 8 l-48 4 32 -33z"/>
<path d="M8176 4081 c-3 -5 -3 -11 2 -13 4 -1 22 -22 40 -44 l32 -42 135 0
136 -1 -38 34 c-21 19 -47 34 -58 34 -11 -1 -29 1 -40 4 -11 2 -41 7 -66 11
-66 10 -102 16 -121 22 -9 3 -19 1 -22 -5z"/>
<path d="M3860 3891 c-25 -15 -65 -38 -90 -52 -25 -13 -47 -26 -50 -29 -5 -6
-468 -272 -560 -323 -30 -16 -63 -37 -72 -45 -10 -8 -18 -11 -18 -6 0 5 -4 4
-8 -1 -4 -6 -70 -46 -146 -90 -206 -118 -205 -110 -19 -108 87 1 209 4 271 6
68 1 116 -1 120 -7 3 -6 5 -125 4 -266 l-3 -255 21 33 c11 18 20 34 20 36 0 3
89 158 130 226 7 12 158 273 278 482 12 22 61 105 108 185 46 80 83 147 81
149 -3 4 -42 -28 -161 -129 -27 -23 -58 -49 -70 -57 -20 -13 -20 -13 -6 5 8
11 22 26 30 35 8 9 29 34 45 55 17 21 35 43 40 49 39 42 107 127 104 131 -3 2
-25 -9 -49 -24z"/>
<path d="M7527 3763 c3 -54 6 -110 6 -126 1 -44 13 -18 26 58 7 39 15 80 17
93 3 15 -4 30 -22 47 -15 14 -28 25 -30 25 -2 0 -1 -44 3 -97z"/>
<path d="M7754 3623 c3 -21 8 -51 11 -68 6 -34 12 -72 21 -129 6 -39 51 -112
62 -101 3 3 6 63 6 133 l1 127 -49 38 c-27 20 -51 37 -54 37 -2 0 -1 -17 2
-37z"/>
<path d="M4958 3511 c-3 -9 -160 -116 -181 -124 -7 -2 -10 -7 -7 -9 7 -7 166
44 179 57 11 11 26 85 18 85 -3 0 -7 -4 -9 -9z"/>
<path d="M5574 3307 c-7 -30 -7 -46 0 -53 17 -16 110 -124 118 -137 4 -7 8 -9
8 -4 0 7 -106 227 -113 234 -2 2 -8 -16 -13 -40z"/>
<path d="M9380 3260 c-31 -8 -77 -15 -160 -25 -14 -2 -41 -6 -60 -10 -69 -13
-137 -13 -195 0 -32 8 -61 13 -63 11 -1 -2 18 -33 43 -70 25 -36 45 -70 45
-75 0 -5 3 -11 8 -13 4 -1 20 -21 35 -44 23 -34 49 -51 155 -104 70 -34 136
-66 147 -71 394 -167 505 -222 569 -281 44 -40 23 -4 -46 80 l-73 90 -105 42
c-211 84 -265 105 -270 105 -3 1 -22 9 -44 18 -21 9 -41 17 -43 17 -3 0 -58
21 -122 46 -116 45 -118 47 -167 111 -85 112 -82 102 -22 86 73 -20 448 -28
448 -9 0 20 -31 106 -38 105 -4 -1 -23 -5 -42 -9z"/>
<path d="M4800 3125 c-87 -70 -108 -92 -123 -131 l-17 -46 42 24 c24 14 61 35
83 47 32 19 101 59 112 66 4 2 15 125 11 125 -2 0 -50 -38 -108 -85z"/>
<path d="M6649 3135 c-4 -22 -4 -1355 1 -1355 3 1 65 108 138 240 126 226 135
239 155 229 27 -15 385 -228 415 -247 21 -14 20 -8 -14 54 -20 38 -43 76 -51
85 -7 8 -13 18 -13 21 0 4 -20 41 -45 82 -25 42 -45 81 -45 86 0 6 -4 10 -10
10 -5 0 -10 4 -10 8 0 5 -82 150 -181 323 -100 173 -197 342 -216 376 -41 74
-55 87 -42 39 5 -19 9 -38 8 -43 -1 -4 0 -15 3 -23 3 -8 10 -46 16 -85 6 -38
14 -86 17 -105 3 -19 2 -28 -1 -20 -19 45 -99 261 -110 295 -7 22 -14 36 -15
30z"/>
<path d="M2328 3108 c4 -3 39 -11 77 -17 95 -14 131 -20 193 -32 29 -6 65 -12
80 -14 15 -2 43 -7 62 -10 19 -4 94 -17 165 -29 72 -13 123 -26 115 -29 -12
-4 -103 -29 -120 -33 -40 -8 -63 -20 -73 -38 -7 -12 -75 -111 -152 -220 -186
-263 -175 -246 -139 -215 16 14 65 50 109 80 44 30 85 59 91 64 6 6 66 48 132
95 119 83 125 89 137 150 0 3 7 29 14 58 13 54 22 60 28 19 2 -12 14 -85 28
-162 13 -77 27 -156 30 -175 3 -19 7 -44 9 -55 9 -49 18 -102 21 -120 2 -11 9
-56 17 -100 l13 -80 2 155 c2 85 4 281 5 435 l3 280 -427 0 c-235 0 -424 -3
-420 -7z"/>
<path d="M5465 3006 l-27 -59 21 -41 c12 -23 33 -61 47 -86 15 -25 35 -60 44
-78 20 -37 29 -31 36 25 3 26 -7 65 -37 142 -23 58 -45 117 -49 131 -7 23 -9
20 -35 -34z"/>
<path d="M8600 2927 c1 -7 7 -43 14 -80 8 -42 10 -85 6 -110 -7 -38 -11 -65
-25 -160 -2 -15 -7 -45 -10 -66 -17 -113 -17 -110 13 -117 15 -3 38 -10 51
-15 13 -5 26 -7 30 -4 12 13 2 375 -13 432 -8 31 -13 59 -11 61 2 2 39 -25 83
-60 50 -40 83 -74 90 -93 5 -16 62 -163 126 -326 64 -163 116 -301 116 -307 0
-6 33 -39 73 -73 39 -34 77 -66 82 -73 6 -6 23 -20 39 -30 23 -14 17 -3 -31
61 -33 43 -72 107 -88 143 -15 36 -38 88 -50 115 -12 28 -39 91 -60 140 -21
50 -42 94 -47 99 -4 6 -8 16 -8 24 0 7 -30 74 -67 149 l-68 135 -122 83 c-68
46 -123 78 -123 72z"/>
<path d="M9440 2602 c0 -6 4 -12 9 -14 4 -1 50 -52 100 -113 51 -60 102 -121
115 -135 12 -14 55 -65 96 -115 41 -49 82 -97 90 -106 18 -20 90 -52 90 -40 0
8 -63 95 -87 119 -7 7 -34 41 -60 75 -26 34 -55 71 -65 82 -63 75 -138 171
-138 176 0 3 6 6 13 6 6 0 26 3 42 7 17 3 59 11 95 17 76 13 95 24 42 25 -20
1 -73 4 -117 8 -196 16 -225 17 -225 8z"/>
<path d="M9222 2394 c3 -5 9 -61 13 -124 4 -63 8 -126 10 -140 2 -14 4 -45 5
-70 1 -50 13 -35 24 33 29 175 18 165 102 99 39 -32 88 -70 109 -87 21 -16 43
-35 49 -40 32 -30 220 -174 223 -171 2 2 -3 21 -12 42 -11 28 -41 60 -105 113
-50 41 -90 78 -90 82 0 5 -5 9 -11 9 -11 0 -151 118 -157 133 -2 4 -7 7 -11 7
-4 0 -28 18 -52 41 -48 45 -106 89 -97 73z"/>
<path d="M4642 2061 c-46 -41 -78 -57 -218 -111 -91 -35 -171 -68 -179 -74
-11 -9 -12 -19 -2 -58 14 -52 24 -68 35 -52 4 5 28 21 55 34 26 14 47 28 47
32 0 5 4 8 9 8 17 0 195 108 226 137 67 62 67 62 60 12 -3 -24 -9 -57 -11 -74
-3 -16 -7 -43 -9 -58 -4 -24 -25 -56 -97 -142 -21 -25 -193 -240 -233 -291
-16 -21 -38 -46 -47 -56 -10 -10 -18 -22 -18 -28 0 -5 -3 -10 -7 -10 -12 -1
-66 -77 -70 -97 -2 -10 -5 -34 -8 -53 -3 -19 -7 -46 -10 -60 -3 -14 -8 -41
-11 -60 -3 -19 -7 -42 -10 -50 -15 -42 16 14 41 75 24 59 62 116 193 294 9 13
61 82 114 155 54 72 119 167 147 211 42 70 50 90 55 150 12 135 15 215 8 215
-4 -1 -31 -22 -60 -49z"/>
<path d="M6896 1967 c-38 -67 -117 -203 -174 -302 -114 -196 -142 -244 -167
-290 -16 -29 -15 -28 17 6 27 30 116 136 233 278 11 13 38 45 60 70 22 26 64
77 94 114 30 37 56 67 57 67 1 0 -9 -41 -22 -91 -14 -49 -22 -99 -19 -110 7
-20 45 -103 140 -304 23 -49 53 -115 65 -145 13 -30 28 -59 33 -65 7 -7 8 -6
4 1 -8 14 -15 66 -22 154 -2 33 -7 81 -9 108 -5 46 -16 169 -21 227 -2 17 -3
42 -4 57 -1 18 -21 46 -66 91 -36 36 -65 68 -65 71 0 3 44 -11 98 -31 53 -20
115 -42 137 -50 22 -7 56 -20 75 -28 19 -7 94 -35 165 -60 72 -26 144 -53 162
-61 17 -8 35 -14 39 -14 15 0 -11 18 -81 55 -38 21 -77 43 -85 50 -8 7 -28 19
-45 27 -16 8 -86 48 -155 88 -226 132 -363 210 -370 210 -3 0 -36 -56 -74
-123z"/>
<path d="M5051 1873 l-63 -127 6 -116 c3 -63 7 -131 10 -150 3 -19 8 -60 10
-91 3 -31 8 -72 10 -90 4 -30 13 -109 21 -179 1 -14 6 -56 10 -95 11 -100 9
-146 -11 -248 -7 -41 22 16 40 78 2 6 6 17 9 25 27 67 45 124 42 133 -4 11 -6
26 -20 140 -3 23 -10 65 -15 92 -9 53 -20 123 -25 165 -2 14 -8 52 -14 85 -6
33 -13 78 -16 100 -2 22 -8 60 -13 85 -9 48 -4 73 35 160 11 25 23 54 27 64 8
22 15 17 21 -14 12 -62 40 -120 147 -305 7 -11 24 -41 38 -67 l26 -48 42 44
42 44 -33 39 c-17 22 -43 55 -57 73 -27 36 -71 92 -80 100 -33 32 -76 103 -92
153 -11 34 -24 66 -28 70 -3 4 -35 -50 -69 -120z"/>
<path d="M4519 1282 c-13 -11 -76 -54 -139 -97 -63 -43 -122 -84 -130 -91 -8
-8 37 4 99 26 62 22 114 40 116 40 2 0 -1 -17 -5 -37 -5 -21 -11 -58 -14 -83
-3 -25 -8 -56 -11 -70 -2 -14 -8 -50 -11 -80 -3 -30 -7 -57 -9 -60 -2 -3 -7
-33 -10 -65 -4 -33 -9 -62 -10 -65 -8 -14 -15 -110 -8 -109 5 0 18 12 30 28
19 25 27 50 38 121 4 28 15 92 21 124 2 11 7 37 10 56 4 19 8 44 10 55 9 46
34 182 39 210 12 68 17 115 13 115 -3 0 -16 -8 -29 -18z"/>
<path d="M4833 1208 c-1 -13 -32 -101 -152 -431 -60 -165 -68 -202 -51 -242 9
-23 5 -29 49 85 12 30 26 64 31 75 21 48 130 336 130 345 0 23 22 5 91 -75 40
-47 74 -84 75 -82 2 2 -25 61 -60 133 -35 71 -71 146 -81 167 -17 37 -31 48
-32 25z"/>
</g>
</svg>
